<svg xmlns="http://www.w3.org/2000/svg" xmlns:xlink="http://www.w3.org/1999/xlink" width="720" height="190"><defs><linearGradient id="g" x1="94.118%" x2="50.529%" y1="34.243%" y2="65.755%"><stop offset="0%" stop-color="#5B79A2"/><stop offset="100%" stop-color="#2E4469"/></linearGradient><linearGradient id="m" x1="98.741%" x2="1.259%" y1="48.741%" y2="48.741%"><stop offset="0%" stop-color="#21C8F6"/><stop offset="100%" stop-color="#637BFF"/></linearGradient><linearGradient id="n" x1=".008%" x2="99.992%" y1="50.123%" y2="49.877%"><stop offset="0%" stop-color="#6F90BC"/><stop offset="100%" stop-color="#2E4469"/></linearGradient><linearGradient id="o" x1="38.02%" x2="80.028%" y1="51.108%" y2="46.662%"><stop offset="0%" stop-color="#1B283E"/><stop offset="100%" stop-color="#688AB8"/></linearGradient><linearGradient id="q" x1="75.874%" x2="92.229%" y1="34.621%" y2="95.445%"><stop offset="0%" stop-color="#5B79A2"/><stop offset="100%" stop-color="#2E4469"/></linearGradient><linearGradient id="z" x1="77.808%" x2="5.982%" y1="0%" y2="146.499%"><stop offset="0%" stop-color="#85A1C6"/><stop offset="100%" stop-color="#1B283E"/></linearGradient><linearGradient id="A" x1="37.941%" x2="41.847%" y1="78.776%" y2="102.32%"><stop offset="0%" stop-color="#55739C"/><stop offset="100%" stop-color="#4179D5"/></linearGradient><linearGradient id="G" x1="154.902%" x2="24.379%" y1="136.646%" y2="14.81%"><stop offset="0%" stop-color="#76E1FF"/><stop offset="100%" stop-color="#637BFF" stop-opacity="0"/></linearGradient><linearGradient id="H" x1="13.291%" x2="106.663%" y1=".616%" y2="98.781%"><stop offset="0%" stop-color="#587CB9"/><stop offset="100%" stop-color="#2E4469" stop-opacity="0"/></linearGradient><linearGradient id="O" x1="98.741%" x2="1.259%" y1="48.741%" y2="48.741%"><stop offset="0%" stop-color="#21C8F6"/><stop offset="100%" stop-color="#637BFF"/></linearGradient><linearGradient id="P" x1="98.741%" x2="1.259%" y1="48.741%" y2="48.741%"><stop offset="0%" stop-color="#21C8F6"/><stop offset="100%" stop-color="#637BFF"/></linearGradient><linearGradient id="S" x1="98.741%" x2="1.259%" y1="48.741%" y2="48.741%"><stop offset="0%" stop-color="#21C8F6"/><stop offset="100%" stop-color="#637BFF"/></linearGradient><linearGradient id="V" x1="38.884%" x2="123.114%" y1="56.78%" y2="36.489%"><stop offset="0%" stop-color="#32466C"/><stop offset="100%" stop-color="#10192A"/></linearGradient><linearGradient id="X" x1="28.29%" x2="62.639%" y1="10.417%" y2="64.66%"><stop offset="0%" stop-color="#25C2F2" stop-opacity=".476"/><stop offset="100%" stop-color="#293F64"/></linearGradient><linearGradient id="Y" x1="53.199%" x2="50%" y1="43.607%" y2="57.555%"><stop offset="0%" stop-color="#101A2A"/><stop offset="100%" stop-color="#213350" stop-opacity="0"/></linearGradient><linearGradient id="aa" x1="-40.15%" x2="59.987%" y1="-47.999%" y2="100%"><stop offset="0%" stop-color="#5B79A2"/><stop offset="100%" stop-color="#243655"/></linearGradient><linearGradient id="ab" x1="32.873%" x2="59.971%" y1="-28.733%" y2="79.159%"><stop offset="0%" stop-color="#25C2F2" stop-opacity=".476"/><stop offset="100%" stop-color="#293F64"/></linearGradient><linearGradient id="ad" x1="0%" x2="100%" y1="50%" y2="50%"><stop offset="0%" stop-color="#5B79A2"/><stop offset="100%" stop-color="#2E4469"/></linearGradient><linearGradient id="ag" x1="0%" x2="100%" y1="50%" y2="50%"><stop offset="0%" stop-color="#5B79A2"/><stop offset="100%" stop-color="#2E4469"/></linearGradient><linearGradient id="aj" x1="16.586%" x2="60.659%" y1="50%" y2="92.56%"><stop offset="0%" stop-color="#5B79A2"/><stop offset="100%" stop-color="#2F4367"/></linearGradient><linearGradient id="ak" x1="35.492%" x2="58.447%" y1="-28.733%" y2="79.159%"><stop offset="0%" stop-color="#25C2F2" stop-opacity=".476"/><stop offset="100%" stop-color="#293F64"/></linearGradient><linearGradient id="am" x1="36.959%" x2="72.43%" y1="50%" y2="27.803%"><stop offset="0%" stop-color="#090F19"/><stop offset="100%" stop-color="#213350" stop-opacity="0"/></linearGradient><linearGradient id="an" x1="98.741%" x2="1.259%" y1="48.741%" y2="48.741%"><stop offset="0%" stop-color="#21C8F6"/><stop offset="100%" stop-color="#637BFF"/></linearGradient><linearGradient id="ao" x1="98.741%" x2="1.259%" y1="48.741%" y2="48.741%"><stop offset="0%" stop-color="#21C8F6"/><stop offset="100%" stop-color="#637BFF"/></linearGradient><linearGradient id="ar" x1="50%" x2="50%" y1="100%" y2="50%"><stop offset="0%" stop-color="#5B79A2"/><stop offset="100%" stop-color="#2E4469"/><stop offset="100%" stop-color="#2E4469"/><stop offset="100%" stop-color="#2E4469"/></linearGradient><linearGradient id="av" x1="46.088%" x2="55.408%" y1="2.256%" y2="100%"><stop offset="0%" stop-color="#374F73"/><stop offset="100%" stop-color="#253652"/></linearGradient><linearGradient id="aw" x1="50%" x2="50%" y1="149.484%" y2="0%"><stop offset="0%" stop-color="#5B79A2"/><stop offset="100%" stop-color="#2E4469"/></linearGradient><linearGradient id="ax" x1="50%" x2="50%" y1="100%" y2="69.152%"><stop offset="0%" stop-color="#5B79A2"/><stop offset="100%" stop-color="#2E4469"/></linearGradient><linearGradient id="ay" x1="50%" x2="28.893%" y1="66.196%" y2="13.209%"><stop offset="0%" stop-color="#267195"/><stop offset="100%" stop-color="#00C3FF"/></linearGradient><linearGradient id="az" x1="10.01%" x2="94.296%" y1="35.988%" y2="65.599%"><stop offset="0%" stop-color="#5B79A2"/><stop offset="100%" stop-color="#2E4469"/></linearGradient><linearGradient id="aH" x1="40.357%" x2="16.862%" y1="51.699%" y2="41.515%"><stop offset="0%" stop-color="#21C8F6" stop-opacity=".299"/><stop offset="100%" stop-color="#637BFF"/></linearGradient><linearGradient id="aI" x1="46.338%" x2="39.281%" y1="81.515%" y2="6.036%"><stop offset="0%" stop-color="#76E1FF"/><stop offset="100%" stop-color="#637BFF" stop-opacity="0"/></linearGradient><linearGradient id="aJ" x1="39.281%" x2="46.338%" y1="6.036%" y2="81.515%"><stop offset="0%" stop-color="#76E1FF"/><stop offset="100%" stop-color="#637BFF" stop-opacity="0"/></linearGradient><linearGradient id="aK" x1="45.341%" x2="48.408%" y1="6.036%" y2="81.515%"><stop offset="0%" stop-color="#76E1FF"/><stop offset="100%" stop-color="#637BFF" stop-opacity="0"/></linearGradient><linearGradient id="aL" x1="0%" x2="100%" y1="50%" y2="50%"><stop offset="0%" stop-color="#5B79A2"/><stop offset="100%" stop-color="#2E4469"/></linearGradient><linearGradient id="aM" x1="85.355%" x2="14.645%" y1="72.293%" y2="27.707%"><stop offset="0%" stop-color="#2F4568"/><stop offset="100%" stop-color="#18222F"/></linearGradient><linearGradient id="aN" x1="50%" x2="50%" y1="-48.381%" y2="62.836%"><stop offset="0%" stop-color="#76E1FF"/><stop offset="100%" stop-color="#637BFF" stop-opacity="0"/></linearGradient><linearGradient id="aP" x1="45.461%" x2="3.524%" y1="168.048%" y2="5.569%"><stop offset="0%" stop-color="#C4D6EB" stop-opacity=".676"/><stop offset="100%" stop-color="#91ACD2" stop-opacity=".3"/></linearGradient><linearGradient id="aQ" x1="39.283%" x2="18.637%" y1="81.515%" y2="6.036%"><stop offset="0%" stop-color="#76E1FF"/><stop offset="100%" stop-color="#637BFF" stop-opacity="0"/></linearGradient><linearGradient id="aR" x1="0%" x2="100%" y1="50%" y2="50%"><stop offset="0%" stop-color="#5B79A2"/><stop offset="100%" stop-color="#2E4469"/></linearGradient><linearGradient id="aW" x1="36.389%" x2="36.389%" y1="0%" y2="39.062%"><stop offset="0%" stop-color="#00F4FF"/><stop offset="100%" stop-color="#00E4FF" stop-opacity="0"/></linearGradient><linearGradient id="bb" x1="0%" x2="100%" y1="50%" y2="50%"><stop offset="0%" stop-color="#5B79A2"/><stop offset="100%" stop-color="#2E4469"/></linearGradient><linearGradient id="bc" x1="42.38%" x2="54.654%" y1="9.244%" y2="90.654%"><stop offset="0%" stop-color="#5B79A2"/><stop offset="100%" stop-color="#2E4469"/></linearGradient><linearGradient id="bd" x1="0%" x2="100%" y1="50%" y2="50%"><stop offset="0%" stop-color="#5B79A2"/><stop offset="100%" stop-color="#2E4469"/></linearGradient><linearGradient id="be" x1="0%" x2="100%" y1="50%" y2="50%"><stop offset="0%" stop-color="#5B79A2"/><stop offset="100%" stop-color="#2E4469"/></linearGradient><linearGradient id="bg" x1="98.741%" x2="1.259%" y1="48.741%" y2="48.741%"><stop offset="0%" stop-color="#21C8F6"/><stop offset="100%" stop-color="#637BFF"/></linearGradient><linearGradient id="bh" x1="98.741%" x2="1.259%" y1="48.741%" y2="48.741%"><stop offset="0%" stop-color="#21C8F6"/><stop offset="100%" stop-color="#637BFF"/></linearGradient><linearGradient id="bk" x1="98.741%" x2="1.259%" y1="48.741%" y2="48.741%"><stop offset="0%" stop-color="#21C8F6"/><stop offset="100%" stop-color="#637BFF"/></linearGradient><linearGradient id="bm" x1="53.825%" x2="81.628%" y1="42.349%" y2="64.984%"><stop offset="0%" stop-color="#335598"/><stop offset="100%" stop-color="#0F1C3C"/></linearGradient><linearGradient id="bo" x1="0%" x2="100%" y1="50%" y2="50%"><stop offset="0%" stop-color="#6F90BC"/><stop offset="100%" stop-color="#2E4469"/></linearGradient><linearGradient id="bp" x1="36.389%" x2="36.389%" y1="0%" y2="39.062%"><stop offset="0%" stop-color="#00F4FF"/><stop offset="100%" stop-color="#00E4FF" stop-opacity="0"/></linearGradient><linearGradient id="bt" x1="0%" x2="100%" y1="50%" y2="50%"><stop offset="0%" stop-color="#5B79A2"/><stop offset="100%" stop-color="#2E4469"/></linearGradient><linearGradient id="bu" x1="42.4%" x2="54.642%" y1="9.244%" y2="90.654%"><stop offset="0%" stop-color="#5B79A2"/><stop offset="100%" stop-color="#2E4469"/></linearGradient><linearGradient id="bv" x1="0%" x2="100%" y1="50%" y2="50%"><stop offset="0%" stop-color="#5B79A2"/><stop offset="100%" stop-color="#2E4469"/></linearGradient><linearGradient id="bw" x1="0%" x2="100%" y1="50%" y2="50%"><stop offset="0%" stop-color="#5B79A2"/><stop offset="100%" stop-color="#2E4469"/></linearGradient><linearGradient id="by" x1="98.741%" x2="1.259%" y1="48.741%" y2="48.741%"><stop offset="0%" stop-color="#21C8F6"/><stop offset="100%" stop-color="#637BFF"/></linearGradient><linearGradient id="bz" x1="98.741%" x2="1.259%" y1="48.741%" y2="48.741%"><stop offset="0%" stop-color="#21C8F6"/><stop offset="100%" stop-color="#637BFF"/></linearGradient><linearGradient id="bC" x1="98.741%" x2="1.259%" y1="48.741%" y2="48.741%"><stop offset="0%" stop-color="#21C8F6"/><stop offset="100%" stop-color="#637BFF"/></linearGradient><radialGradient id="e" cx="50%" cy="0%" r="192.018%" fx="50%" fy="0%" gradientTransform="matrix(0 1 -.26389 0 .5 -.5)"><stop offset="0%" stop-color="#2981A9"/><stop offset="100%" stop-color="#1E314D"/></radialGradient><radialGradient id="h" cx="60.099%" cy="-31.473%" r="84.399%" fx="60.099%" fy="-31.473%" gradientTransform="scale(.56137 1) rotate(-74.621 .836 -.623)"><stop offset="0%" stop-color="#25C2F2" stop-opacity=".626"/><stop offset="100%" stop-color="#293F64"/></radialGradient><radialGradient id="i" cx="52.436%" cy="42.955%" r="36.114%" fx="52.436%" fy="42.955%" gradientTransform="matrix(-1 0 0 -.2096 1.049 .52)"><stop offset="0%" stop-color="#172743"/><stop offset="100%" stop-opacity="0"/></radialGradient><radialGradient id="p" cx="67.785%" cy="-140.802%" r="229%" fx="67.785%" fy="-140.802%" gradientTransform="matrix(0 -1 .34125 0 1.158 -.73)"><stop offset="0%" stop-color="#25C2F2" stop-opacity=".626"/><stop offset="100%" stop-color="#293F64"/></radialGradient><radialGradient id="r" cx="52.436%" cy="42.955%" r="157.881%" fx="52.436%" fy="42.955%" gradientTransform="matrix(-.22874 0 0 -.21136 .644 .52)"><stop offset="0%" stop-color="#172743"/><stop offset="100%" stop-opacity="0"/></radialGradient><radialGradient id="v" cx="50%" cy="50%" r="68.353%" fx="50%" fy="50%" gradientTransform="matrix(0 1 -.9913 0 .996 0)"><stop offset="0%" stop-color="#21C8F6"/><stop offset="100%" stop-color="#4BDEFF"/></radialGradient><radialGradient id="y" cx="50%" cy="50%" r="102.557%" fx="50%" fy="50%" gradientTransform="matrix(0 .99273 -1.93068 0 1.465 .004)"><stop offset="0%" stop-color="#FFF"/><stop offset="100%" stop-color="#C42E6C"/></radialGradient><radialGradient id="L" cx="50%" cy="50%" r="273.6%" fx="50%" fy="50%" gradientTransform="matrix(.25 0 0 1 .375 0)"><stop offset="0%" stop-color="#21C8F6"/><stop offset="100%" stop-color="#4BDEFF"/></radialGradient><radialGradient id="M" cx="50%" cy="50%" r="28.075%" fx="50%" fy="50%" gradientTransform="matrix(0 1 -1.65986 0 1.33 0)"><stop offset="0%"/><stop offset="100%" stop-opacity="0"/></radialGradient><radialGradient id="U" cx="50%" cy="85.965%" r="81.725%" fx="50%" fy="85.965%" gradientTransform="matrix(0 -1 .73509 0 -.132 1.36)"><stop offset="0%" stop-color="#38D4FB"/><stop offset="100%" stop-color="#56F5FE" stop-opacity="0"/></radialGradient><radialGradient id="W" cx="-13.828%" cy="-9.043%" r="124.253%" fx="-13.828%" fy="-9.043%" gradientTransform="scale(.70904 1) rotate(53.014 -.167 -.147)"><stop offset="0%" stop-color="#FAC446"/><stop offset="100%" stop-color="#233452" stop-opacity="0"/></radialGradient><radialGradient id="Z" cx="50%" cy="0%" r="69.799%" fx="50%" fy="0%" gradientTransform="matrix(0 1 -.63271 0 .5 -.5)"><stop offset="0%" stop-color="#283F62"/><stop offset="100%" stop-color="#101A2A"/></radialGradient><radialGradient id="ac" cx="50%" cy="0%" r="70.094%" fx="50%" fy="0%" gradientTransform="matrix(0 .99579 -1 0 .5 -.498)"><stop offset="0%" stop-color="#283F62"/><stop offset="100%" stop-color="#101A2A"/></radialGradient><radialGradient id="ae" cx="-6.685%" cy="70.19%" r="96.162%" fx="-6.685%" fy="70.19%" gradientTransform="matrix(.13067 -.84624 .99143 .11153 -.754 .567)"><stop offset="0%" stop-color="#25C2F2" stop-opacity=".626"/><stop offset="100%" stop-color="#293F64"/></radialGradient><radialGradient id="af" cx="50%" cy="0%" r="88.772%" fx="50%" fy="0%" gradientTransform="matrix(0 .78627 -1 0 .5 -.393)"><stop offset="0%" stop-color="#283F62"/><stop offset="100%" stop-color="#101A2A"/></radialGradient><radialGradient id="ah" cx="-6.685%" cy="70.19%" r="96.16%" fx="-6.685%" fy="70.19%" gradientTransform="matrix(.13067 -.84626 .99143 .11154 -.754 .567)"><stop offset="0%" stop-color="#25C2F2" stop-opacity=".626"/><stop offset="100%" stop-color="#293F64"/></radialGradient><radialGradient id="ai" cx="50%" cy="0%" r="88.769%" fx="50%" fy="0%" gradientTransform="matrix(0 .7863 -1 0 .5 -.393)"><stop offset="0%" stop-color="#283F62"/><stop offset="100%" stop-color="#101A2A"/></radialGradient><radialGradient id="al" cx="-6.685%" cy="70.19%" r="100.336%" fx="-6.685%" fy="70.19%" gradientTransform="scale(1 .81748) rotate(-82.806 .022 .78)"><stop offset="0%" stop-color="#25C2F2" stop-opacity=".626"/><stop offset="100%" stop-color="#293F64"/></radialGradient><radialGradient id="ap" cx="42.558%" cy="20.967%" r="61.194%" fx="42.558%" fy="20.967%" gradientTransform="matrix(.05982 .99708 -.78108 .07637 .564 -.23)"><stop offset="0%" stop-color="#5B79A2"/><stop offset="100%" stop-color="#2E4469"/><stop offset="100%" stop-color="#2E4469"/><stop offset="100%" stop-color="#253858"/></radialGradient><radialGradient id="aq" cx="7.73%" cy="3.866%" r="110.036%" fx="7.73%" fy="3.866%" gradientTransform="scale(.78337 1) rotate(75.229 .088 .053)"><stop offset="0%" stop-color="#25C2F2" stop-opacity=".626"/><stop offset="100%" stop-color="#293F64"/></radialGradient><radialGradient id="as" cx="7.73%" cy="3.866%" r="132.433%" fx="7.73%" fy="3.866%" gradientTransform="matrix(.16595 .80342 -.22392 .59541 .073 -.046)"><stop offset="0%" stop-color="#25C2F2" stop-opacity=".626"/><stop offset="100%" stop-color="#293F64"/></radialGradient><radialGradient id="at" cx="52.436%" cy="42.955%" r="36.744%" fx="52.436%" fy="42.955%" gradientTransform="matrix(-.98285 0 0 -.21136 1.04 .52)"><stop offset="0%" stop-color="#172743"/><stop offset="100%" stop-opacity="0"/></radialGradient><radialGradient id="aA" cx="7.73%" cy="3.866%" r="107.142%" fx="7.73%" fy="3.866%" gradientTransform="scale(.62668 1) rotate(63.799 .1 .076)"><stop offset="0%" stop-color="#22CBFF" stop-opacity=".194"/><stop offset="100%" stop-color="#293F64" stop-opacity=".378"/></radialGradient><radialGradient id="aB" cx="68.302%" cy="0%" r="117.183%" fx="68.302%" fy="0%" gradientTransform="matrix(.30582 -.87284 .70277 .62698 .474 .596)"><stop offset="0%" stop-color="#25C2F2" stop-opacity=".626"/><stop offset="100%" stop-color="#293F64"/></radialGradient><radialGradient id="aG" cx="50%" cy="50%" r="68.4%" fx="50%" fy="50%"><stop offset="0%" stop-color="#21C8F6"/><stop offset="100%" stop-color="#4BDEFF"/></radialGradient><radialGradient id="aO" cx="37.435%" cy="76.012%" r="68.095%" fx="37.435%" fy="76.012%" gradientTransform="matrix(.27978 -.93587 .74314 .35234 -.295 .843)"><stop offset="0%" stop-color="#25C2F2" stop-opacity=".626"/><stop offset="100%" stop-color="#293F64"/></radialGradient><radialGradient id="aX" cx="13.24%" cy="63.095%" r="101.026%" fx="13.24%" fy="63.095%" gradientTransform="scale(1 .65752) rotate(-38.634 .601 .795)"><stop offset="0%" stop-color="#AFEDFF"/><stop offset="100%" stop-color="#77D7FF"/></radialGradient><radialGradient id="bn" cx="50%" cy="50%" r="59.707%" fx="50%" fy="50%" gradientTransform="matrix(0 .99968 -1 0 1 0)"><stop offset="0%" stop-color="#21C8F6"/><stop offset="100%" stop-color="#4BDEFF"/></radialGradient><radialGradient id="bq" cx="13.24%" cy="63.095%" r="101.077%" fx="13.24%" fy="63.095%" gradientTransform="scale(1 .65667) rotate(-38.67 .602 .796)"><stop offset="0%" stop-color="#AFEDFF"/><stop offset="100%" stop-color="#77D7FF"/></radialGradient><path id="a" d="M0 0h720v190H0z"/><path id="c" d="M0 0h720v190H0z"/><path id="l" d="M61.312 150.299l75.655.007a2.006 2.006 0 11.001 4.014l-38.43-.004-37.226-.003a2.007 2.007 0 010-4.014z"/><path id="x" d="M14.494 6.358V3.536l-1.05.599-1.45.827v2.822l2.5-1.426zm-2.999 5.105V8.639l-1.426.807-4.072 2.304v2.85l5.498-3.137zM0 1.853v9.61L5.497 14.6v-2.85l-2.872-1.61-.002-.001c-.01-.006-.018-.014-.027-.02l-.023-.019h-.001c-.008-.008-.014-.018-.02-.026l-.02-.025-.013-.031c-.004-.01-.01-.018-.012-.028-.003-.012-.003-.025-.005-.037 0-.01-.003-.018-.003-.028V3.28l-1.45-.828L0 1.854zM2.749 0L.251 1.425l2.497 1.426 2.498-1.426L2.748 0h.001zm1.3 8.896l1.449-.827V1.854l-1.05.599-1.45.827v6.215l1.05-.599zm7.696-7.214L9.247 3.108l2.498 1.425 2.498-1.426-2.498-1.425zm-.25 3.28l-1.45-.827-1.049-.599v2.822l1.45.827 1.049.6V4.961zm-5.748 6.36L9.41 9.247l1.832-1.036-2.497-1.425-2.874 1.64-2.62 1.495 2.495 1.4z"/><path id="B" d="M9.888 0h53.176c5.461 0 9.888 4.427 9.888 9.888v42.115a9.887 9.887 0 01-6.3 9.214C60.345 63.672 50.704 64.9 37.729 64.9c-13.747 0-24.21-1.378-31.386-4.134A9.889 9.889 0 010 51.536V9.887C0 4.427 4.427 0 9.888 0z"/><path id="E" d="M52.28 54.45a5.205 5.205 0 01-3.942-1.841 1.211 1.211 0 01.11-1.687 1.153 1.153 0 011.652.12 2.874 2.874 0 002.175 1.015 2.844 2.844 0 002.171-1.006 1.153 1.153 0 011.652-.113c.49.435.542 1.191.118 1.688a5.152 5.152 0 01-3.935 1.823z"/><path id="F" d="M9.888 0h53.176c5.461 0 9.888 4.427 9.888 9.888v42.115a9.887 9.887 0 01-6.3 9.214C60.345 63.672 50.704 64.9 37.729 64.9c-13.747 0-24.21-1.378-31.386-4.134A9.889 9.889 0 010 51.536V9.887C0 4.427 4.427 0 9.888 0z"/><path id="aC" d="M44.384 56.378c24.513 0 44.385-.525 44.385-20.397S68.897 0 44.384 0C19.872 0 0 16.11 0 35.981c0 19.872 19.872 20.397 44.384 20.397z"/><path id="aS" d="M56.532 51.411s-1.547-2.36-3.102-3.015c-.467-.197-.935-.24-1.362-.019-.572.297-.701 1.007-.607 1.846.21 1.87 1.53 4.382 1.53 4.382.261-.242.537-.466.825-.674 2.365-1.707 5.471-2.298 6.597-2.464.273-.04.43-.056.43-.056s-.152-.47-.482-1.065a6.193 6.193 0 00-.747-1.077c-.37-.423-.83-.81-1.388-1.051a1.15 1.15 0 00-.456-.106c-1.365 0-1.238 3.3-1.238 3.3"/><path id="aU" d="M79.97 49.257c-.574.201-1.058.555-1.455.951a6.263 6.263 0 00-.693.837c-.45.652-.673 1.214-.673 1.214s.155.026.426.085c1.038.229 3.777.949 5.965 2.565.44.325.857.687 1.234 1.087 0 0 1.57-2.555 1.84-4.424.09-.631.034-1.184-.282-1.534-.57-.633-1.508-.37-2.145-.015-1.41.783-2.737 2.539-2.737 2.539s.353-3.38-1.08-3.38c-.121 0-.254.023-.4.075"/><path id="aY" d="M80.596 52.664C84.066 21.443 63.808 0 39.55 0 15.302 0-3.04 20.241.42 54c1.46 14.18-.35 39.573 11.56 51.62 8.616 8.714 5.001 5.37 16.823 13.46 0 0 11.445 8.293 23.477 1.254 9.594-7.059 20.864-10.422 25.074-25.004 3.073-10.642 2.037-31.805 3.242-42.666"/><path id="aZ" d="M80.56 38.783c.541 4.358.578 9 .036 13.88-1.205 10.862-.17 32.025-3.242 42.667-3.195 11.068-10.459 15.673-17.969 20.336l-.716.445c-2.149 1.335-4.308 2.692-6.389 4.223-12.032 7.039-23.477-1.253-23.477-1.253-6.41-4.387-8.281-5.412-10.025-6.82l-.232-.19c-1.393-1.16-2.829-2.671-6.565-6.45C.07 93.573 1.88 68.18.42 54c-.547-5.334-.55-10.33-.07-14.963.022.241.046.482.07.725 1.46 14.18-.35 39.573 11.56 51.62 6.264 6.335 6.063 6.297 10.03 8.913.126-3.491 1.945-5.666 4.286-8.234 2.735-2.998 19.462-3.719 27.692-1.201 4.912 1.503 7.165 4.742 6.76 9.718 7.014-4.396 13.604-9.09 16.606-19.486 3.017-10.449 2.073-31.038 3.178-42.064zM35.526 96.496c-3.85.778-6.73 3.125-8.64 7.043.59.399 1.226.832 1.916 1.304 0 0 11.445 8.292 23.477 1.253a68.846 68.846 0 013.306-2.274c-.562-3.292-3.184-5.734-7.865-7.326-7.752-2.637-5.787-1.295-12.194 0z"/><path id="ba" d="M39.55 0c23.511 0 43.265 20.143 41.3 49.807C79.11 24.29 60.876 6.485 39.55 6.485 18.316 6.485 1.61 23.228.11 50.06-1.582 18.673 16.26 0 39.55 0z"/><path id="br" d="M75.86 49.634C79.129 20.209 60.06 0 37.228 0 14.403 0-2.863 19.077.396 50.893 1.77 64.257.066 88.19 11.276 99.544c8.11 8.212 4.708 5.06 15.835 12.686 0 0 10.773 7.815 22.098 1.18 9.03-6.652 19.638-9.822 23.6-23.565 2.893-10.03 1.918-29.974 3.052-40.211"/><path id="bs" d="M37.227 0c22.13 0 40.724 18.985 38.872 46.945C74.465 22.893 57.301 6.11 37.227 6.11 17.239 6.111 1.515 21.893.103 47.183-1.49 17.6 15.303 0 37.227 0z"/><filter id="d" width="101.9%" height="107.4%" x="-1%" y="-2.6%" filterUnits="objectBoundingBox"><feOffset dy="2" in="SourceAlpha" result="shadowOffsetOuter1"/><feGaussianBlur in="shadowOffsetOuter1" result="shadowBlurOuter1" stdDeviation="2"/><feColorMatrix in="shadowBlurOuter1" values="0 0 0 0 0.666666667 0 0 0 0 0.639215686 0 0 0 0 0.639215686 0 0 0 0.3 0"/></filter><filter id="j" width="100%" height="100%" x="0%" y="0%" filterUnits="objectBoundingBox"><feGaussianBlur in="SourceGraphic"/></filter><filter id="k" width="159%" height="1268.7%" x="-29.5%" y="-460%" filterUnits="objectBoundingBox"><feOffset dy="5" in="SourceAlpha" result="shadowOffsetOuter1"/><feGaussianBlur in="shadowOffsetOuter1" result="shadowBlurOuter1" stdDeviation="7"/><feColorMatrix in="shadowBlurOuter1" values="0 0 0 0 0.0115609217 0 0 0 0 0.467910214 0 0 0 0 1 0 0 0 1 0"/></filter><filter id="s" width="131.9%" height="239.7%" x="-16%" y="-69.8%" filterUnits="objectBoundingBox"><feGaussianBlur in="SourceGraphic" stdDeviation="3.018"/></filter><filter id="t" width="143.9%" height="144.3%" x="-22%" y="-22.2%" filterUnits="objectBoundingBox"><feGaussianBlur in="SourceGraphic" stdDeviation="5.174"/></filter><filter id="u" width="179.1%" height="179.8%" x="-39.6%" y="-39.9%" filterUnits="objectBoundingBox"><feGaussianBlur in="SourceGraphic" stdDeviation="5.174"/></filter><filter id="w" width="141.4%" height="141.1%" x="-20.7%" y="-20.5%" filterUnits="objectBoundingBox"><feOffset in="SourceAlpha" result="shadowOffsetOuter1"/><feGaussianBlur in="shadowOffsetOuter1" result="shadowBlurOuter1" stdDeviation="1"/><feColorMatrix in="shadowBlurOuter1" values="0 0 0 0 0.951002038 0 0 0 0 0.370524746 0 0 0 0 0.61045536 0 0 0 1 0"/></filter><filter id="D" width="1377.4%" height="2926.8%" x="-638.7%" y="-1413.4%" filterUnits="objectBoundingBox"><feOffset in="SourceAlpha" result="shadowOffsetOuter1"/><feGaussianBlur in="shadowOffsetOuter1" result="shadowBlurOuter1" stdDeviation="18"/><feColorMatrix in="shadowBlurOuter1" values="0 0 0 0 0.141176471 0 0 0 0 0.792156863 0 0 0 0 0.968627451 0 0 0 1 0"/></filter><filter id="J" width="240%" height="660%" x="-70%" y="-240%" filterUnits="objectBoundingBox"><feOffset dy="6" in="SourceAlpha" result="shadowOffsetOuter1"/><feGaussianBlur in="shadowOffsetOuter1" result="shadowBlurOuter1" stdDeviation="13"/><feColorMatrix in="shadowBlurOuter1" values="0 0 0 0 0.137254902 0 0 0 0 0.788235294 0 0 0 0 0.968627451 0 0 0 1 0"/></filter><filter id="au" width="100%" height="100%" x="0%" y="0%" filterUnits="objectBoundingBox"><feGaussianBlur in="SourceGraphic"/></filter><filter id="aE" width="543.8%" height="543.8%" x="-221.9%" y="-190.6%" filterUnits="objectBoundingBox"><feOffset dy="5" in="SourceAlpha" result="shadowOffsetOuter1"/><feGaussianBlur in="shadowOffsetOuter1" result="shadowBlurOuter1" stdDeviation="11"/><feColorMatrix in="shadowBlurOuter1" values="0 0 0 0 0.137254902 0 0 0 0 0.788235294 0 0 0 0 0.968627451 0 0 0 1 0"/></filter><ellipse id="N" cx="20.912" cy="20.639" rx="20.912" ry="20.639"/><ellipse id="R" cx="20.912" cy="20.639" rx="20.912" ry="20.639"/><ellipse id="bf" cx="20.635" cy="20.551" rx="20.635" ry="20.551"/><ellipse id="bj" cx="20.635" cy="20.551" rx="20.635" ry="20.551"/><ellipse id="bx" cx="19.423" cy="19.368" rx="19.423" ry="19.368"/><ellipse id="bB" cx="19.423" cy="19.368" rx="19.423" ry="19.368"/><circle id="aF" cx="45.841" cy="25.383" r="8"/><rect id="K" width="60" height="15" x="5.447" y="16.516" rx="7"/></defs><g fill="none" fill-rule="evenodd"><mask id="b" fill="#fff"><use xlink:href="#a"/></mask><use fill="#000" fill-opacity=".03" opacity=".6" xlink:href="#a"/><g mask="url(#b)"><mask id="f" fill="#fff"><use xlink:href="#c"/></mask><use fill="#000" filter="url(#d)" xlink:href="#c"/><use fill="url(#e)" xlink:href="#c"/><g style="mix-blend-mode:luminosity" mask="url(#f)"><g transform="rotate(38 26.266 22.145)"><path fill="#1B283E" d="M37.57 100.19l122.62-.282c7.275-.017 13.187 5.868 13.204 13.144 0 .56-.033 1.122-.103 1.679l-7.79 61.758c-1.658 13.157-12.836 23.03-26.096 23.053l-79.628.131c-13.088.022-24.209-9.567-26.113-22.515l-9.097-61.876c-1.059-7.2 3.919-13.893 11.117-14.951a13.355 13.355 0 011.886-.14z"/><path fill="url(#g)" d="M34.031 100.251l129.83-2.253c7.274-.127 13.274 5.669 13.4 12.944.014.81-.047 1.622-.182 2.422l-8.617 51.028c-2.11 12.488-12.804 21.709-25.466 21.956l-84.762 1.659c-12.682.248-23.74-8.575-26.316-20.994L21.36 116.099c-1.477-7.125 3.1-14.098 10.225-15.576a13.144 13.144 0 012.446-.272z" transform="rotate(1 98.926 143.078)"/><path fill="url(#h)" d="M34.031 100.251l129.83-2.253c7.274-.127 13.274 5.669 13.4 12.944.014.81-.047 1.622-.182 2.422l-8.617 51.028c-2.11 12.488-12.804 21.709-25.466 21.956l-84.762 1.659c-12.682.248-23.74-8.575-26.316-20.994L21.36 116.099c-1.477-7.125 3.1-14.098 10.225-15.576a13.144 13.144 0 012.446-.272z" opacity=".705" transform="rotate(1 98.926 143.078)"/><ellipse cx="9.965" cy="9.904" filter="url(#j)" rx="8.647" ry="8.719" transform="rotate(-80 162.423 -29.209)" fill="url(#i)" opacity=".899"/><path fill="#1B283E" d="M61.311 142.95l75.656.007a2.008 2.008 0 010 4.014l-38.43-.003-37.226-.004a2.008 2.008 0 010-4.014z"/><g><use fill="#000" filter="url(#k)" xlink:href="#l"/><use fill="url(#m)" xlink:href="#l"/></g><path fill="#1B283E" d="M62.373 157.647l75.655.007a2.008 2.008 0 01.001 4.014l-38.43-.003-37.226-.004a2.006 2.006 0 110-4.014zM62.373 164.996l75.656.007a2.007 2.007 0 110 4.014l-38.43-.004-37.226-.003a2.008 2.008 0 010-4.014z"/><path fill="url(#n)" d="M32.587 99.85l135.032-1.751c5.453-.07 9.93 4.292 10.001 9.745a9.866 9.866 0 01-1.254 4.945l-.905 1.62a26.353 26.353 0 01-22.658 13.49l-104.44 1.353a26.35 26.35 0 01-22.785-12.542l-1.199-1.95c-2.831-4.603-1.395-10.63 3.209-13.461a9.781 9.781 0 014.999-1.45z" transform="rotate(1 100.024 113.662)"/><path fill="#111A28" d="M88.122 100.305l25.955.003c3.647 0 7.132 1.513 9.623 4.178l3.936 4.21a4.985 4.985 0 01-3.641 8.388l-45.791-.004a4.984 4.984 0 01-3.641-8.388l3.934-4.208a13.173 13.173 0 019.625-4.179z"/><path fill="url(#o)" d="M32.587 99.85l135.032-1.751c5.453-.07 9.93 4.292 10.001 9.745a9.866 9.866 0 01-1.254 4.945l-.905 1.62a26.353 26.353 0 01-22.658 13.49l-104.44 1.353a26.35 26.35 0 01-22.785-12.542l-1.199-1.95c-2.831-4.603-1.395-10.63 3.209-13.461a9.781 9.781 0 014.999-1.45z" opacity=".504" transform="rotate(1 100.024 113.662)"/><path fill="url(#p)" d="M32.587 99.85l135.032-1.751c5.453-.07 9.93 4.292 10.001 9.745a9.866 9.866 0 01-1.254 4.945l-.905 1.62a26.353 26.353 0 01-22.658 13.49l-104.44 1.353a26.35 26.35 0 01-22.785-12.542l-1.199-1.95c-2.831-4.603-1.395-10.63 3.209-13.461a9.781 9.781 0 014.999-1.45z" opacity=".705" transform="rotate(1 100.024 113.662)"/><path fill="url(#q)" d="M90.395 70.377h22.73c5.66 0 10.247 4.587 10.247 10.247v25.106a5.855 5.855 0 01-5.855 5.856H86.003a5.855 5.855 0 01-5.855-5.856V80.624c0-5.66 4.587-10.247 10.247-10.247z"/><ellipse cx="101.297" cy="91.863" fill="#1B283E" rx="15.262" ry="15.128"/><ellipse cx="99.645" cy="74.859" fill="url(#r)" filter="url(#s)" opacity=".65" rx="28.344" ry="6.483"/><g transform="translate(65.085 56.39)"><ellipse fill="#92BAE9" opacity=".136" style="mix-blend-mode:overlay" cx="35.321" cy="35.011" filter="url(#t)" rx="35.321" ry="35.011"/><ellipse cx="35.321" cy="35.011" fill="#328AF1" filter="url(#u)" opacity=".842" rx="19.623" ry="19.45"/><ellipse cx="35.74" cy="35.811" fill="url(#v)" rx="10.465" ry="10.374" transform="scale(1 -1) rotate(4 1061.242 0)"/><g transform="translate(29.225 28.968)"><use fill="#000" filter="url(#w)" xlink:href="#x"/><use fill="url(#y)" xlink:href="#x"/></g><path fill="#FFF" fill-opacity=".547" d="M26.934 36.49a9.24 9.24 0 003.876 6.611 9.254 9.254 0 01-1.587-4.302c-.532-5.069 3.108-9.607 8.133-10.135a9.067 9.067 0 016.187 1.612c-1.847-2.674-5.04-4.282-8.476-3.92-5.025.527-8.666 5.065-8.133 10.134z" style="mix-blend-mode:lighten" opacity=".5"/></g><g transform="rotate(-1 136.411 -2207.57)"><path fill="url(#z)" d="M35.259 0H82.83c11.702 0 21.188 9.486 21.188 21.188V70.44c0 14.042-11.384 25.426-25.426 25.426H39.496c-14.042 0-25.426-11.384-25.426-25.426V21.188C14.07 9.486 23.557 0 35.26 0z"/><path fill="url(#A)" d="M35.259 0H82.83c11.702 0 21.188 9.486 21.188 21.188V70.44c0 14.042-11.384 25.426-25.426 25.426H39.496c-14.042 0-25.426-11.384-25.426-25.426V21.188C14.07 9.486 23.557 0 35.26 0z"/><ellipse cx="32.794" cy="8.202" fill="#243552" rx="2.833" ry="2.853"/><path fill="#1B283E" d="M14.37 59.147c0 14.042 11.383 25.426 25.425 25.426h38.797c14.043 0 25.426-11.384 25.426-25.426v11.396c0 14.042-11.383 25.426-25.426 25.426H39.795c-14.042 0-25.426-11.384-25.426-25.426z" opacity=".157"/><g transform="translate(22.898 14.264)"><mask id="C" fill="#fff"><use xlink:href="#B"/></mask><use fill="#1B283E" xlink:href="#B"/><g mask="url(#C)" transform="rotate(-15 52.275 52.54)"><use fill="#000" filter="url(#D)" xlink:href="#E"/><use fill="#2BCDF8" xlink:href="#E"/></g><mask id="I" fill="#fff"><use xlink:href="#F"/></mask><path stroke="url(#G)" stroke-width="1.54" d="M63.064.77a9.09 9.09 0 016.448 2.67 9.09 9.09 0 012.67 6.448h0v42.115a9.113 9.113 0 01-5.811 8.497c-6.244 2.431-15.795 3.63-28.642 3.63-13.624 0-23.997-1.351-31.11-4.083a9.104 9.104 0 01-4.246-3.348A9.107 9.107 0 01.77 51.535h0V9.888A9.09 9.09 0 013.44 3.44 9.09 9.09 0 019.889.77h0z"/><ellipse cx=".24" cy="4.212" fill="url(#H)" mask="url(#I)" opacity=".527" rx="33.704" ry="33.929"/><g fill-rule="nonzero" mask="url(#I)"><use fill="#000" filter="url(#J)" xlink:href="#K"/><use fill="url(#L)" xlink:href="#K"/></g></g><path d="M68.677 10.127h-2.276c-.623 0-1.128-.51-1.128-1.14 0-.631.505-1.142 1.128-1.142h2.276c.623 0 1.128.51 1.128 1.141 0 .63-.505 1.141-1.128 1.141zm4.25-3.138H70.65c-.623 0-1.128-.51-1.128-1.14a1.135 1.135 0 011.128-1.142h2.276c.623 0 1.13.51 1.13 1.141 0 .63-.507 1.141-1.13 1.141zm11.612 3.138H72.073c-.627 0-1.135-.51-1.135-1.14 0-.631.508-1.142 1.135-1.142h12.46c.627 0 1.136.51 1.136 1.141 0 .63-.509 1.141-1.136 1.141h.006zm4.198-3.138H76.368c-.652 0-1.18-.51-1.18-1.14 0-.632.528-1.142 1.18-1.142h12.37c.651 0 1.18.51 1.18 1.141 0 .63-.529 1.141-1.18 1.141z" fill="#243552"/><ellipse cx="31.49" cy="60.237" fill="url(#M)" opacity=".882" rx="14.713" ry="7.843" transform="rotate(-1 31.49 60.237)"/><ellipse cx="87.409" cy="61.005" fill="url(#M)" opacity=".882" rx="14.713" ry="7.843" transform="rotate(-1 87.41 61.005)"/><g style="mix-blend-mode:luminosity"><g transform="rotate(-4 312.337 -127.979)"><mask id="Q" fill="#fff"><use xlink:href="#N"/></mask><use fill="url(#O)" opacity=".398" xlink:href="#N"/><path fill="url(#P)" d="M21.25-1.503L4.852 30.677c1.136 2.078 2.79 3.82 4.961 5.228a18.728 18.728 0 007.065 2.77L34.063 2.621C31.458.984 29.439-.07 28.005-.544c-1.434-.473-3.686-.793-6.756-.959z" mask="url(#Q)" opacity=".309"/></g><g transform="rotate(-4 313.745 -895.314)"><mask id="T" fill="#fff"><use xlink:href="#R"/></mask><use fill="url(#O)" opacity=".398" xlink:href="#R"/><path fill="url(#S)" d="M19.745 2.54L3.991 32.737c1.135 2.077 2.789 3.82 4.96 5.228a18.728 18.728 0 007.065 2.77L32.56 6.664c-2.605-1.637-4.625-2.692-6.059-3.165-1.434-.473-3.685-.793-6.755-.96z" mask="url(#T)" opacity=".309"/></g><path fill="#1B283E" stroke="#1B283E" stroke-width="1.54" d="M85.353 58.733c-10.685-.186-19.198-8.864-19.014-19.381.184-10.516 8.994-18.891 19.68-18.705 10.684.187 19.197 8.863 19.013 19.38-.183 10.518-8.994 18.892-19.679 18.706zm-54.023-.944c-10.685-.185-19.198-8.862-19.014-19.38.184-10.517 8.994-18.891 19.679-18.705 10.685.187 19.198 8.863 19.014 19.38-.184 10.518-8.994 18.892-19.679 18.706zm68.582-35.11c-4.03-2.699-9.24-4.951-13.84-5.03-6.198-.108-11.851 2.272-15.977 6.206-1.994 1.772-3.72 3.719-5.504 5.625-2.259 2.415-3.55 1.188-5.766 1.15-2.216-.039-3.549 1.142-5.722-1.35-1.716-1.967-3.374-3.975-5.305-5.814-3.985-4.075-9.62-6.653-15.818-6.761-4.601-.08-9.174 1.207-12.568 3.49-.62.463-1.091.815-1.41 1.057-1.862 1.327-5.052 3.65-6.7 5.456-2.449 2.686-7.7 2.776-7.7 2.776l-.097 5.636s3.144-.128 4.139 1.072c.587.707 1.176 4.077 2.17 7.608.301 1.258.739 2.472 1.247 3.638.475 1.157 1.036 2.232 1.68 3.117l.008-.006c3.9 6.042 10.712 10.105 18.527 10.241 9.073.158 16.976-5.02 20.628-12.596l.018-.022.053-.084c1.655-2.657 3.402-9.984 4.153-11.14.76-1.17 2.608-1.228 2.608-1.228s1.845.123 2.563 1.318c.712 1.182 2.201 8.565 3.762 11.279l.05.087.017.02c3.385 7.7 11.1 13.15 20.174 13.309 7.815.137 14.76-3.686 18.87-9.588l.001.006c.677-.862 1.261-1.917 1.776-3.057a21.678 21.678 0 001.35-3.593c1.118-3.494 1.77-6.841 2.381-7.528 1.037-1.165 4.074-.93 4.074-.93l.098-5.635s-5.16-.271-7.514-3.04c-1.584-1.864-4.61-4.296-6.425-5.687z"/></g></g></g></g><path fill="url(#U)" d="M100.847 108.609c34.698-54.643 128.068-81.965 280.109-81.965 152.041 0 238.005 27.322 257.89 81.965v108.035h-538V108.61z" mask="url(#f)" opacity=".4"/><g style="mix-blend-mode:luminosity" mask="url(#f)"><path fill="url(#V)" fill-rule="nonzero" d="M121.057 87.539l-2.89 2.436a44.376 44.376 0 00-46.552 1.767v-4.207c-9.581 9.591-33.531 28.768-28.74 47.944 2.433 9.746 9.816 12.06 16.49 10.722a104.37 104.37 0 008.234 14.732h57.48a126.242 126.242 0 007.981-14.782c6.74 1.448 14.28-.802 16.746-10.672 4.786-19.176-19.172-38.353-28.749-47.94z" transform="rotate(-27 478.773 -1139.3)"/><path fill="url(#W)" fill-rule="nonzero" d="M121.057 87.539l-2.89 2.436a44.376 44.376 0 00-46.552 1.767v-4.207c-9.581 9.591-33.531 28.768-28.74 47.944 2.433 9.746 9.816 12.06 16.49 10.722a104.37 104.37 0 008.234 14.732h57.48a126.242 126.242 0 007.981-14.782c6.74 1.448 14.28-.802 16.746-10.672 4.786-19.176-19.172-38.353-28.749-47.94z" transform="rotate(-27 478.773 -1139.3)"/><path fill="url(#X)" d="M121.057 87.539l-2.89 2.436a44.376 44.376 0 00-46.552 1.767v-4.207c-9.581 9.591-33.531 28.768-28.74 47.944 2.433 9.746 9.816 12.06 16.49 10.722a104.37 104.37 0 008.234 14.732h57.48a126.242 126.242 0 007.981-14.782c6.74 1.448 14.28-.802 16.746-10.672 4.786-19.176-19.172-38.353-28.749-47.94z" opacity=".705" transform="rotate(-27 478.773 -1139.3)"/><path fill="url(#Y)" d="M53.127 96.049l9.071-6.2 51.25 9.549 23.448 14.546-16.504 18.307-48.671 1.671-24.855-31.39z" transform="scale(-1 1) rotate(27 -386.893 -1522.011)"/><path fill="url(#Z)" d="M133.734 84.344a35.819 35.819 0 01-4.188 5.119 837.402 837.402 0 01-11.264 13.81l-.633.755c-.317.379-.636.757-.954 1.135l-.637.754-.319.376c-3.944 4.64-3.833 8.78.479 10.219 4.545 1.516 9.255-3.996 9.255-3.996l11.423-9.984s-6.644 29.161-30.586 29.161c-9.958 0-22.438-6.634-28.74-14.382-6.784-8.359-8.42-19.046-8.81-23.568a36.585 36.585 0 01-6.701-6.284c9.204 5.595 20.866 8.938 33.552 8.938 14.876 0 28.344-4.597 38.092-12.03z" opacity=".204" transform="rotate(-27 478.773 -1139.3)"/><path fill="url(#aa)" fill-rule="nonzero" d="M50.432 141.757c0 10.59 7.624 19.176 17.033 19.176 9.41 0 17.033-8.585 17.033-19.176 0-10.591-7.626-19.177-17.033-19.177s-17.033 8.588-17.033 19.177z" transform="rotate(-27 478.773 -1139.3)"/><path fill="url(#ab)" d="M50.432 141.757c0 10.59 7.624 19.176 17.033 19.176 9.41 0 17.033-8.585 17.033-19.176 0-10.591-7.626-19.177-17.033-19.177s-17.033 8.588-17.033 19.177z" opacity=".705" transform="rotate(-27 478.773 -1139.3)"/><path fill="url(#ac)" d="M60.278 147.084a7.486 7.486 0 004.582 6.933 7.43 7.43 0 008.13-1.606 7.503 7.503 0 001.627-8.158 7.45 7.45 0 00-6.887-4.626 7.421 7.421 0 00-5.264 2.178 7.485 7.485 0 00-2.188 5.28z" opacity=".3" transform="rotate(-27 478.773 -1139.3)"/><g transform="rotate(-38 467.923 -786.992)"><path fill="url(#ad)" fill-rule="nonzero" d="M87.33 45.544c0 25.154 17.979 45.546 43.112 45.546 25.133 0 29.399-18.337 33.53-43.147C168.764 19.177 157.97 0 132.837 0c-25.09-.042-45.463 20.349-45.506 45.544z"/><path fill="url(#ad)" fill-rule="nonzero" d="M87.33 45.544c0 25.154 17.979 45.546 43.112 45.546 25.133 0 29.399-18.337 33.53-43.147C168.764 19.177 157.97 0 132.837 0c-25.09-.042-45.463 20.349-45.506 45.544z"/><path fill="url(#ae)" d="M87.33 45.544c0 25.154 17.979 45.546 43.112 45.546 25.133 0 29.399-18.337 33.53-43.147C168.764 19.177 157.97 0 132.837 0c-25.09-.042-45.463 20.349-45.506 45.544z" opacity=".705"/><path fill="url(#af)" d="M130.442 76.706c8.368 0 10.714-2.678 12.402-5.423 3.392-5.51 5.221-15.304 6.955-25.707 1.963-11.791.694-21.382-3.481-26.315-4.13-4.879-11.167-4.879-13.48-4.879-17.158-.007-31.085 13.932-31.136 31.162a32.728 32.728 0 008.297 22.427 27.134 27.134 0 0020.443 8.735z"/><path fill="url(#ag)" fill-rule="nonzero" d="M77.751 45.544c0 25.154-17.978 45.544-43.111 45.544-25.133 0-29.399-18.335-33.531-43.145C-3.681 19.177 7.112 0 32.244 0A45.335 45.335 0 0164.39 13.307a45.718 45.718 0 0113.361 32.237z"/><path fill="url(#ah)" d="M77.751 45.544c0 25.154-17.978 45.544-43.111 45.544-25.133 0-29.399-18.335-33.531-43.145C-3.681 19.177 7.112 0 32.244 0A45.335 45.335 0 0164.39 13.307a45.718 45.718 0 0113.361 32.237z" opacity=".705"/><path fill="url(#ai)" d="M34.64 76.706c-8.368 0-10.714-2.678-12.402-5.423-3.392-5.51-5.222-15.304-6.955-25.707-1.964-11.789-.705-21.376 3.485-26.315 4.126-4.879 11.173-4.879 13.476-4.879C49.4 14.375 63.329 28.314 63.38 45.544a32.725 32.725 0 01-8.3 22.427 27.134 27.134 0 01-20.44 8.735z"/><path fill="url(#ai)" d="M34.64 76.706c-8.368 0-10.714-2.678-12.402-5.423-3.392-5.51-5.222-15.304-6.955-25.707-1.964-11.789-.705-21.376 3.485-26.315 4.126-4.879 11.173-4.879 13.476-4.879C49.4 14.375 63.329 28.314 63.38 45.544a32.725 32.725 0 01-8.3 22.427 27.134 27.134 0 01-20.44 8.735z"/><path fill="url(#aj)" fill-rule="nonzero" d="M102.02 95.086c-4.31-1.439-4.423-5.578-.478-10.219 5.84-6.884 11.787-14.298 13.806-16.83a35.824 35.824 0 0010.304-24.879c.002-21.192-19.3-38.363-43.11-38.363S39.43 21.965 39.43 43.148c.174 11.577 5.785 22.392 15.134 29.169.389 4.522 2.025 15.209 8.808 23.568 6.303 7.748 18.783 14.382 28.74 14.382 23.943 0 28.741-14.382 28.741-14.382l-9.577-4.795s-4.71 5.512-9.255 3.996z"/><path fill="url(#ak)" d="M102.02 95.086c-4.31-1.439-4.423-5.578-.478-10.219 5.84-6.884 11.787-14.298 13.806-16.83a35.824 35.824 0 0010.304-24.879c.002-21.192-19.3-38.363-43.11-38.363S39.43 21.965 39.43 43.148c.174 11.577 5.785 22.392 15.134 29.169.389 4.522 2.025 15.209 8.808 23.568 6.303 7.748 18.783 14.382 28.74 14.382 23.943 0 28.741-14.382 28.741-14.382l-9.577-4.795s-4.71 5.512-9.255 3.996z" opacity=".705"/><path fill="url(#al)" d="M102.02 95.086c-4.31-1.439-4.423-5.578-.478-10.219 5.84-6.884 11.787-14.298 13.806-16.83a35.824 35.824 0 0010.304-24.879c.002-21.192-19.3-38.363-43.11-38.363S39.43 21.965 39.43 43.148c.174 11.577 5.785 22.392 15.134 29.169.389 4.522 2.025 15.209 8.808 23.568 6.303 7.748 18.783 14.382 28.74 14.382 23.943 0 28.741-14.382 28.741-14.382l-9.577-4.795s-4.71 5.512-9.255 3.996z" opacity=".705"/><path fill="url(#am)" d="M113.268 19.37l17.96 2.113c-3.279 9.395-4.361 16.042-3.248 19.94 1.114 3.897.044 3.303-3.21-1.783l-11.502-20.27z" transform="rotate(-180 122.247 31.665)"/><ellipse cx="62.928" cy="55.227" fill="#10192A" fill-rule="nonzero" rx="3.593" ry="3.596"/><ellipse cx="101.895" cy="56.324" fill="#10192A" fill-rule="nonzero" rx="3.593" ry="3.596"/></g><g><g transform="rotate(-37 487.89 -858.142)"><circle cx="84.711" cy="30.62" r="20.994" fill="url(#an)" opacity=".398" transform="rotate(45 84.71 30.62)"/><path fill="url(#ao)" d="M85.672 36.373c6.938 0 13.087-3.386 16.9-8.603.04.525.06 1.055.06 1.59 0 11.62-9.38 21.038-20.95 21.038-11.57 0-20.95-9.419-20.95-21.038 0-4.652 1.504-8.952 4.05-12.435.81 10.877 9.853 19.448 20.89 19.448z" opacity=".309" transform="rotate(45 81.682 33.662)"/><circle cx="29.69" cy="29.69" r="20.994" fill="url(#an)" opacity=".398" transform="rotate(45 29.69 29.69)"/><path fill="url(#ao)" d="M30.651 35.442c6.937 0 13.087-3.386 16.9-8.602.04.524.06 1.055.06 1.59 0 11.619-9.38 21.038-20.95 21.038-11.57 0-20.95-9.42-20.95-21.038 0-4.653 1.504-8.952 4.05-12.436.81 10.877 9.853 19.448 20.89 19.448z" opacity=".309" transform="rotate(45 26.66 32.731)"/><path fill="#152238" stroke="#152238" stroke-width="2" d="M84.678 53.196c-8.891.013-16.972-5.278-20.674-13.539l-.017-.022-.052-.091c-.965-1.663-1.937-5.047-2.718-7.768-.328-1.35-.76-2.67-1.293-3.95-.74-1.222-2.604-1.33-2.62-1.331-.016-.001-1.88.108-2.62 1.33-.533 1.28-.965 2.6-1.293 3.95-.782 2.72-1.753 6.105-2.719 7.769l-.053.091-.017.022c-3.448 7.657-10.679 12.81-18.902 13.468-8.224.659-16.152-3.279-20.726-10.293l-.007.007a15.775 15.775 0 01-1.757-3.226 23.027 23.027 0 01-1.328-3.78c-.387-1.326-.718-2.637-1.014-3.792a16.391 16.391 0 00-1.32-4.12c-.794-.952-2.888-1.055-3.751-1.055-.27 0-.443.01-.462.011v-5.891c1-.058 1.991-.21 2.964-.451a9.309 9.309 0 004.787-2.59 49.84 49.84 0 016.691-5.825l.028-.022c.473-.383.92-.743 1.42-1.084l-.034-.023A22.073 22.073 0 0129.86 7.114a22.475 22.475 0 018.89 1.819 22.556 22.556 0 017.258 4.954c1.627 1.55 3.098 3.245 4.517 4.88l.005.005c.311.359.633.734.952 1.094a3.792 3.792 0 002.935 1.615c.429-.012.856-.06 1.277-.14a7.78 7.78 0 013.216 0c.422.08.849.128 1.277.14.753 0 1.69-.191 2.936-1.615.322-.367.647-.743.962-1.106l.005-.005c1.418-1.634 2.884-3.325 4.511-4.863 7.674-7.798 19.656-9.009 28.677-2.9l.031.022c.476.323.96.686 1.48 1.106a50.127 50.127 0 016.61 5.825 8.824 8.824 0 004.746 2.59c.958.24 1.935.392 2.92.451v5.891c-.006 0-.18-.01-.449-.01-.837 0-2.873.102-3.663 1.055-.586 1.24-1 2.559-1.23 3.916-.3 1.214-.64 2.59-1.049 3.994a23.024 23.024 0 01-1.305 3.779 15.562 15.562 0 01-1.744 3.227v-.007c-4.213 6.486-11.33 10.379-18.947 10.365zm0-42.947c-7.861-.012-14.97 4.773-18.061 12.158-3.107 7.468-1.442 16.116 4.201 21.824 4.618 4.695 11.212 6.748 17.607 5.48 6.395-1.268 11.76-5.692 14.323-11.81 3.107-7.468 1.442-16.116-4.202-21.825-3.683-3.743-8.67-5.84-13.864-5.83l-.004.003zm-54.75 0c-7.862-.014-14.973 4.772-18.065 12.158-3.107 7.467-1.444 16.115 4.199 21.824 4.617 4.696 11.212 6.748 17.607 5.48 6.395-1.268 11.76-5.691 14.323-11.81 3.106-7.466 1.442-16.112-4.199-21.82-3.683-3.744-8.67-5.841-13.864-5.832h0z"/></g></g></g><g style="mix-blend-mode:luminosity" mask="url(#f)"><path fill="url(#ap)" fill-rule="nonzero" d="M23.961 66.993h67.146c6.484 0 11.74 5.257 11.74 11.741v30.264c0 16.033-12.997 29.03-29.03 29.03H41.2c-16.033 0-29.03-12.997-29.03-29.03V78.785c0-6.512 5.279-11.792 11.791-11.792z" transform="rotate(15 -284.028 419.929)"/><path fill="url(#aq)" d="M23.961 66.993h67.146c6.484 0 11.74 5.257 11.74 11.741v30.264c0 16.033-12.997 29.03-29.03 29.03H41.2c-16.033 0-29.03-12.997-29.03-29.03V78.785c0-6.512 5.279-11.792 11.791-11.792z" opacity=".705" transform="rotate(15 -284.028 419.929)"/><path fill="url(#ar)" fill-rule="nonzero" d="M57.583 85.304c25.04 0 45.339-.235 45.339-9.143 0-8.908-20.299-16.13-45.339-16.13s-45.339 7.222-45.339 16.13c0 8.908 20.299 9.143 45.339 9.143z" transform="rotate(15 -284.028 419.929)"/><path fill="url(#as)" d="M57.583 85.304c25.04 0 45.339-.235 45.339-9.143 0-8.908-20.299-16.13-45.339-16.13s-45.339 7.222-45.339 16.13c0 8.908 20.299 9.143 45.339 9.143z" opacity=".705" transform="rotate(15 -284.028 419.929)"/><path fill="#16243A" fill-rule="nonzero" d="M132.92 183.45c12.476 3.343 22.636 5.88 24.41-.74 1.773-6.619-6.902-14.694-19.378-18.037-12.475-3.343-24.026-.687-25.8 5.932-1.773 6.62 8.293 9.503 20.768 12.845z"/><g transform="scale(-1 1) rotate(-19 476.73 378.367)"><ellipse cx="7.452" cy="7.546" fill="url(#at)" filter="url(#au)" opacity=".899" rx="6.611" ry="6.497" transform="rotate(-81 7.452 7.546)"/><path stroke="url(#av)" stroke-width="2.963" d="M5.734 3.767c-9.8.642-3.804 9.979-4.978 18.49-1.041 7.544 4.516 15.43 10.306 12.971" transform="scale(-1 1) rotate(-8 23.957 133.151)"/><g transform="scale(-1 1) rotate(82 -5.373 -2.612)"><rect width="4.639" height="4.96" x="1.74" y="1.653" fill="#1B283E" rx="2.319"/><rect width="8.118" height="3.307" fill="url(#aw)" rx="1.653"/></g></g><path fill="url(#ax)" d="M49.582 48.601h16.542a7.824 7.824 0 017.823 7.824v19.233c0 2.47-2.001 4.47-4.47 4.47H46.23c-2.47 0-4.47-2-4.47-4.47V56.425a7.823 7.823 0 017.822-7.824z" transform="rotate(15 -284.028 419.929)"/><path fill="url(#ay)" d="M49.582 48.601h16.542a7.824 7.824 0 017.823 7.824v19.233c0 2.47-2.001 4.47-4.47 4.47H46.23c-2.47 0-4.47-2-4.47-4.47V56.425a7.823 7.823 0 017.822-7.824z" opacity=".447" transform="rotate(15 -284.028 419.929)"/><path fill="url(#az)" fill-rule="nonzero" d="M55.839 69.986c30.838 0 55.838-.65 55.838-25.32 0-24.668-25-44.666-55.838-44.666C24.999 0 0 19.998 0 44.667c0 24.668 25 25.319 55.839 25.319z" transform="rotate(15 -284.863 426.271)"/><path fill="url(#aA)" d="M55.839 69.986c30.838 0 55.838-.65 55.838-25.32 0-24.668-25-44.666-55.838-44.666C24.999 0 0 19.998 0 44.667c0 24.668 25 25.319 55.839 25.319z" opacity=".705" transform="rotate(15 -284.863 426.271)"/><path fill="url(#aB)" d="M55.839 69.986c30.838 0 55.838-.65 55.838-25.32 0-24.668-25-44.666-55.838-44.666C24.999 0 0 19.998 0 44.667c0 24.668 25 25.319 55.839 25.319z" opacity=".705" transform="rotate(15 -284.863 426.271)"/><g transform="rotate(15 -316.432 466.37)"><mask id="aD" fill="#fff"><use xlink:href="#aC"/></mask><use fill="#192841" fill-rule="nonzero" opacity=".736" xlink:href="#aC"/><g fill-rule="nonzero" mask="url(#aD)"><use fill="#000" filter="url(#aE)" xlink:href="#aF"/><use fill="url(#aG)" xlink:href="#aF"/></g><path fill="url(#aH)" fill-rule="nonzero" d="M44.384 0c17.119 0 31.973 7.856 39.378 19.363-6.61-3.167-14.318-4.984-22.55-4.984-24.513 0-44.384 16.11-44.384 35.982 0 1.574.124 3.027.366 4.368C6.733 52.56 0 47.549 0 35.98 0 16.11 19.872 0 44.384 0z" mask="url(#aD)" opacity=".195"/></g></g><g style="mix-blend-mode:luminosity" mask="url(#f)"><g fill-rule="nonzero" stroke-width=".685"><path stroke="url(#aI)" d="M76.033 3.351c0-.35-.13-.66-.39-.928L73.692.404c-.26-.27-.56-.404-.898-.404-.338 0-.637.135-.897.404L53.714 19.218a1.296 1.296 0 000 1.857l18.183 18.813c.26.27.559.404.897.404.339 0 .638-.135.898-.404l1.95-2.017a1.3 1.3 0 00.001-1.857L60.309 20.146 75.643 4.28c.26-.269.39-.579.39-.929z" transform="rotate(163 333.886 105.773)"/><path stroke="url(#aJ)" d="M22.71 3.351c0-.35-.13-.66-.39-.928L20.367.404c-.26-.27-.56-.404-.898-.404-.338 0-.637.135-.897.404L.39 19.218a1.296 1.296 0 000 1.857l18.183 18.813c.26.27.559.404.897.404.339 0 .638-.135.898-.404l1.951-2.017c.26-.27.39-.58.39-.93 0-.349-.13-.659-.39-.927L6.985 20.146 22.319 4.28c.26-.269.39-.579.39-.929z" transform="rotate(-17 637.622 -1781.16)"/><path stroke="url(#aK)" d="M41.854 6.123l-1.753-.474a.81.81 0 00-.663.065.88.88 0 00-.435.53L28.658 41.417a.796.796 0 00.075.67c.123.21.307.351.552.425l1.753.474a.808.808 0 00.664-.065.877.877 0 00.434-.529L42.481 7.218a.796.796 0 00-.074-.67.927.927 0 00-.553-.425z" opacity=".238" transform="rotate(-9 929.749 -3447.86)"/></g><g transform="rotate(-17 712.984 -1692.576)"><path fill="url(#aL)" d="M51.463 9.632c7.993-6.007 24.541-5.415 32.08 0 3.46 2.486 5.989 9.664 5.989 9.664s16.69 3.42 22.54 8.21c0 .833-5.355.942-6.752.956l.5.37c1.158.523 3.402 1.552 5.896 2.792l.626.313c3.887 1.956 8.197 4.35 9.89 6.107 0 .826-4.116.703-5.253.653.178.183.35.365.521.546.011.01.024.018.037.028l.378.27c3.269 2.349 12.252 9.214 16.736 16.706l.308.32-7.62-2.186-.009.412c.507 1.392 2.052 5.707 3.354 10.207l.189.658c.093.33.184.659.273.987l.176.656c.201.764.39 1.519.558 2.252-.67 1.388-3.655-.017-5.25-.897a212.17 212.17 0 01-.229 2.716c1.102 4.936 3.004 14.542 3.221 22.877-.923.639-5.234-4.79-5.234-4.79s.23 3.339.409 6.592l.032.59c.098 1.86.175 3.622.175 4.633-.262-.135-.904-1.006-1.557-1.965l-.28-.414a81.146 81.146 0 01-1.11-1.71 70.606 70.606 0 01-.64 2.148c-.16 20.582-109.543 15.703-109.392-5.264-.228-.937-.444-1.888-.65-2.846-.976 1.903-2.255 4.391-3.37 6.539-2.361-8.818-.557-21.767.412-27.324-.044-.509-.085-1.011-.125-1.508-.14.243-.299.505-.47.77l-.15.229c-.025.038-.05.076-.077.113l-.158.226c-1.068 1.491-2.436 2.678-3.126.35 0-7.665 3.228-18.19 3.228-18.19S2.463 58.802 0 56.887c3.135-6.504 11.645-13.007 16.052-16.07a85.57 85.57 0 011.425-1.552c-1.872.314-5.072.595-4.853-1.22 4.158-3.552 12.592-7.306 15.883-8.698.246-.188.496-.376.746-.563h-9.548c4.618-5.429 25.768-9.487 25.768-9.487s2.582-7.102 5.99-9.664z"/><path fill="url(#aM)" stroke="url(#aN)" stroke-width="1.029" d="M67.202 5.86c6.118 0 12.245 1.463 16.04 4.19 3.306 2.374 5.712 9.156 5.803 9.41 1.71.617 16.102 3.678 22.088 7.975a3.305 3.305 0 01-.875.223c-1.67.236-4.077.28-4.943.29h0l-1.542.015 1.243.913.496.368c1.25.578 3.489 1.604 5.974 2.84h0l.625.312c3.514 1.769 7.388 3.893 9.29 5.568a1.88 1.88 0 01-.586.151c-1.278.159-3.117.099-3.814.068h0l-1.295-.057.904.93c.177.18.347.36.516.54 3.548 2.56 11.782 8.835 16.403 15.834h0l-6.905-1.762c.08.326.152.612.218.85.212.766.61 1.98 1.1 3.47.664 2.024 1.497 4.559 2.248 7.154h0l.188.656c.092.328.183.655.272.98h0l.175.654c.18.684.35 1.36.504 2.021-.452.196-.748.18-1.071.125-1.101-.188-2.474-.873-3.379-1.372a26.425 26.425 0 01-.699-.402 233.305 233.305 0 01-.292 3.522c1.09 4.995 2.944 14.335 3.208 22.54-1.146-.199-4.305-4.727-4.305-4.727s-.482-.69-1.056-1.599c.086 1.173.14 1.954.14 1.954s.23 3.336.408 6.585h0l.032.59c.062 1.161.115 2.285.146 3.209-.184-.262-.383-.557-.587-.855a99.87 99.87 0 01-1.384-2.113c-.161-.255-.36-.57-.621-.995a75.331 75.331 0 01-.942 3.264c-.04 2.315-1.389 4.153-3.683 5.718-2.62 1.787-6.467 3.214-11.151 4.311-10.51 2.462-25.2 3.247-39.843 2.542-14.523-.699-29-2.862-39.304-6.321-4.586-1.54-8.34-3.332-10.883-5.373-2.242-1.8-3.54-3.787-3.523-5.983a232.287 232.287 0 01-.662-2.958c-.102-.476-.2-.95-.296-1.424l-.664 1.297c-.53 1.033-1.15 2.238-1.783 3.467L8.5 95.686h0l-.317.612c-1.847-8.673-.173-20.534.74-25.772-.037-.64-.079-1.142-.119-1.637h0l-.132-1.645-.826 1.429c-.135.233-.287.486-.452.742-.695.985-1.342 1.802-1.917 1.952-.421-.219-.542-.47-.652-.826.021-7.595 3.206-17.962 3.206-17.962s.508-1.653 1.388-4.041c-.943 1.884-2.282 3.57-2.282 3.57s-2.183 2.75-4.35 4.03c-.523.31-1.044.535-1.528.583-.2.02-.395.008-.576-.05 3.26-6.282 11.406-12.474 15.663-15.433.542-.584 1.012-1.098 1.505-1.622.39-.415.776-.815 1.157-1.204-.561.152-1.134.263-1.617.345-1.044.175-2.529.354-3.524.104-.263-.067-.493-.157-.632-.32 4.077-3.73 12.256-7.36 15.472-8.722.549-.232 1.245-.521 2.049-.845h0l-9.88-.631C26.648 23.376 45.57 19.8 45.57 19.8c.387-.33 2.88-7.26 6.202-9.758C55.589 7.175 61.4 5.86 67.202 5.86z"/><path fill="url(#aO)" d="M51.463 9.632c7.993-6.007 24.541-5.415 32.08 0 3.46 2.486 5.989 9.664 5.989 9.664s16.69 3.42 22.54 8.21c0 .833-5.355.942-6.752.956l.5.37c1.158.523 3.402 1.552 5.896 2.792l.626.313c3.887 1.956 8.197 4.35 9.89 6.107 0 .826-4.116.703-5.253.653.178.183.35.365.521.546.011.01.024.018.037.028l.378.27c3.269 2.349 12.252 9.214 16.736 16.706l.308.32-7.62-2.186-.009.412c.507 1.392 2.052 5.707 3.354 10.207l.189.658c.093.33.184.659.273.987l.176.656c.201.764.39 1.519.558 2.252-.67 1.388-3.655-.017-5.25-.897a212.17 212.17 0 01-.229 2.716c1.102 4.936 3.004 14.542 3.221 22.877-.923.639-5.234-4.79-5.234-4.79s.23 3.339.409 6.592l.032.59c.098 1.86.175 3.622.175 4.633-.262-.135-.904-1.006-1.557-1.965l-.28-.414a81.146 81.146 0 01-1.11-1.71 70.606 70.606 0 01-.64 2.148c-.16 20.582-109.543 15.703-109.392-5.264-.228-.937-.444-1.888-.65-2.846-.976 1.903-2.255 4.391-3.37 6.539-2.361-8.818-.557-21.767.412-27.324-.044-.509-.085-1.011-.125-1.508-.14.243-.299.505-.47.77l-.15.229c-.025.038-.05.076-.077.113l-.158.226c-1.068 1.491-2.436 2.678-3.126.35 0-7.665 3.228-18.19 3.228-18.19S2.463 58.802 0 56.887c3.135-6.504 11.645-13.007 16.052-16.07a85.57 85.57 0 011.425-1.552c-1.872.314-5.072.595-4.853-1.22 4.158-3.552 12.592-7.306 15.883-8.698.246-.188.496-.376.746-.563h-9.548c4.618-5.429 25.768-9.487 25.768-9.487s2.582-7.102 5.99-9.664z" opacity=".705"/><path fill="#24385A" stroke="url(#aP)" stroke-width=".612" d="M79.93 31.355c0 7.278-5.688 13.178-12.705 13.178-7.018 0-12.706-5.9-12.706-13.178 0-7.279 5.688-13.18 12.706-13.18 7.017 0 12.706 5.901 12.706 13.18"/><path fill="#000" fill-opacity=".152" stroke="url(#aQ)" stroke-width=".622" d="M79.93 31.355c0 7.278-5.688 13.178-12.705 13.178-7.018 0-12.706-5.9-12.706-13.178 0-7.279 5.688-13.18 12.706-13.18 7.017 0 12.706 5.901 12.706 13.18"/><path fill="#76E2FF" d="M64.964 24.832s-.519.06-1.262.295c-1.626.513-4.33 1.863-5.043 5.252-.034.496-.037 1 .013 1.494.157 1.567.949 2.912 2.1 3.963 1.542 1.408 3.73 2.291 5.905 2.48 3.36.289 6.69-1.08 7.571-4.737.091-.375.162-.736.224-1.089.197-2.066-.136-3.717-.879-4.965a5.452 5.452 0 00-.819-1.058c-1.25-1.258-3.097-1.876-5.298-1.876-.795 0-1.636.08-2.512.24"/><path fill="url(#aR)" d="M65.548 27.208s-1.153.133-1.919 1.002c-.413.47-.715 1.153-.661 2.146.036.671.361 1.245.846 1.688.412.376.94.658 1.504.826 1.17.348 2.496.205 3.28-.612.274-.286.482-.655.592-1.115.13-.536.184-1.017.172-1.445-.021-.8-.274-1.41-.697-1.837-.459-.461-1.117-.707-1.902-.744a5.575 5.575 0 00-1.215.091"/><path fill="#ECECEC" d="M68.924 30.208c0 .53-.414.959-.924.959s-.924-.43-.924-.959c0-.528.414-.958.924-.958s.924.43.924.958"/><path fill="#1C2737" fill-rule="nonzero" d="M80.518 70.562c-2.214.93-4.725.773-6.888-.431-.924-.514-1.309-1.725-.856-2.701.452-.978 1.568-1.352 2.494-.838 1.194.665 2.58.752 3.8.24 1.22-.513 2.158-1.576 2.572-2.917.322-1.037 1.376-1.574 2.353-1.197.98.376 1.512 1.523 1.19 2.561-.75 2.428-2.451 4.354-4.665 5.283z"/><mask id="aT" fill="#fff"><use xlink:href="#aS"/></mask><path d="M56.532 51.411s-1.547-2.36-3.102-3.015c-.467-.197-.935-.24-1.362-.019-.572.297-.701 1.007-.607 1.846.21 1.87 1.53 4.382 1.53 4.382.261-.242.537-.466.825-.674 2.365-1.707 5.471-2.298 6.597-2.464.273-.04.43-.056.43-.056s-.152-.47-.482-1.065a6.193 6.193 0 00-.747-1.077c-.37-.423-.83-.81-1.388-1.051a1.15 1.15 0 00-.456-.106c-1.365 0-1.238 3.3-1.238 3.3" mask="url(#aT)"/><mask id="aV" fill="#fff"><use xlink:href="#aU"/></mask><path d="M79.97 49.257c-.574.201-1.058.555-1.455.951a6.263 6.263 0 00-.693.837c-.45.652-.673 1.214-.673 1.214s.155.026.426.085c1.038.229 3.777.949 5.965 2.565.44.325.857.687 1.234 1.087 0 0 1.57-2.555 1.84-4.424.09-.631.034-1.184-.282-1.534-.57-.633-1.508-.37-2.145-.015-1.41.783-2.737 2.539-2.737 2.539s.353-3.38-1.08-3.38c-.121 0-.254.023-.4.075" mask="url(#aV)"/></g></g><g mask="url(#f)"><path stroke="url(#aW)" stroke-width="1.6" d="M142.531 164.286l-40.293-11.659-20.838-1.463v-.06l-.402.028-.395-.029v.061l-20.845 1.463-40.29 11.66S-1.742 172.903.115 198h161.77c1.86-25.096-19.354-33.714-19.354-33.714" transform="translate(364 13)"/><path fill="#77D7FF" d="M478.162 93.717s5.284-7.48 9.647-4.313c0 0 2.646 2.678.867 9.402a52.094 52.094 0 00-.806 3.688c-.175.953-.325 1.948-.383 2.92-.054 1.008.243 2.082-.028 3.074-.564 2.06-1.562 4.265-3.366 5.5-.778.528-1.657.924-2.6.99-.4.033-3.484-.302-3.478-.742l.147-20.52"/><path fill="#61C5FF" d="M478.142 95.987s4.268-6.028 7.777-3.478c0 0 2.136 2.162.705 7.58a40.842 40.842 0 00-.65 2.976c-.14.768-.265 1.572-.31 2.353-.044.813.192 1.68-.022 2.48-.456 1.664-1.259 3.44-2.712 4.43-.628.43-1.336.744-2.098.8-.321.027-2.81-.238-2.81-.598l.12-16.543"/><path fill="#77D7FF" d="M408.96 93.717s-5.285-7.48-9.648-4.313c0 0-2.645 2.678-.867 9.402.322 1.217.58 2.45.807 3.688.175.953.328 1.948.379 2.92.057 1.008-.24 2.082.035 3.074.558 2.06 1.555 4.265 3.362 5.5.778.528 1.651.924 2.598.99.402.033 3.49-.302 3.484-.742l-.15-20.52"/><path fill="#61C5FF" d="M408.98 95.987s-4.265-6.028-7.778-3.478c0 0-2.135 2.162-.704 7.58.255.983.465 1.978.65 2.976.14.768.268 1.572.306 2.353.045.813-.188 1.68.029 2.48.452 1.664 1.259 3.44 2.712 4.43.625.43 1.332.744 2.097.8.319.027 2.811-.238 2.811-.598l-.124-16.543"/><path fill="#77D7FF" d="M425.145 143.684s4.099 17.585-4.618 25.533h49.067s-10.301-13.702-4.74-27.52l-39.71 1.987"/><path fill="#61C5FF" d="M425.96 156.175c1.776 1.4 3.787 2.426 5.951 3.258 5.03 1.945 10.353 2.873 15.669 1.537 5.064-1.27 10.02-4.28 12.921-8.716 1.358-2.08 2.19-4.416 3.222-6.66.262-1.295.61-2.592 1.132-3.896l-39.71 1.986s1.374 5.949.816 12.49"/><g transform="translate(403.051 29.583)"><use fill="url(#aX)" xlink:href="#aY"/><use fill="#25395B" xlink:href="#aZ"/><use fill="#000" fill-opacity=".078" xlink:href="#ba"/></g><path fill="#77D7FF" d="M506.531 177.286l-40.293-11.658-20.838-1.465v-.06l-.402.028-.395-.028v.06l-20.845 1.464-40.29 11.658s-21.21 8.618-19.353 33.714h161.77c1.86-25.096-19.354-33.714-19.354-33.714"/><path fill="url(#bb)" d="M117.4 140.431l25.131 7.272s21.215 8.618 19.353 33.714H.115c-1.858-25.096 19.37-33.717 19.37-33.717l27.872-8.066s30.428 39.408 70.043.797" transform="translate(364 29.583)"/><path stroke="url(#bc)" stroke-linecap="round" stroke-width="3.2" d="M30.34 98.23c-2.647 19.715 14.784 37.179 13.694 49.599-1.09 12.42 11.42 7.623 17.11 15.632 3.794 5.339 5.02 11.466 3.677 18.382" transform="translate(364 13)"/><path fill="#25395B" d="M483.34 106.205s3.543-24.431 4.022-35.912l.05-.034V67.14l-.472-8.72s-3.836-20.926 3.263-27.26c0 0-5.52-.276-9.636 3.304 0 0-.395-9.636 5.962-14.592 0 0-7.74 1.65-12.733 9.361 0 0-2.642-8.808 4.116-12.391 0 0-39.013-12.35-56.686 12.322v-.01s-22.352 7.24-21.786 37.41l-.037-.021c-.489 8.447 4.039 39.662 4.039 39.662l3.445-32.066c1.94-8.887.739-14.162 7.28-20.949 0 0 13.22-11.015 27.91-2.77 0 0 14.977-9.621 29.576 1.666 0 0 5.965 5.781 7.426 20.377l4.261 33.742"/><g><path fill="#25395B" d="M491.37 77.479c-1.535-.008-2.903 1.884-2.898 4.175l.212 29.9c-.321 1.36.165 2.81 1.216 3.626 1.05.816 2.44.823 3.477.018 1.037-.805 1.497-2.25 1.153-3.614l-.203-29.766a4.037 4.037 0 00-.638-2.867c-.56-.823-1.4-1.356-2.32-1.472zm-95.298 35.132c1.832-.281 3.112-2.141 2.889-4.2l-.216-29.896c.187-2.049-1.114-3.92-2.945-4.235-.93.065-1.79.548-2.383 1.34s-.87 1.824-.764 2.86l.3 29.89a4.194 4.194 0 00.778 2.832c.585.796 1.428 1.303 2.34 1.408z"/><path fill="url(#bd)" d="M101.583 68.398c-1.743-.068-3.238 1.22-3.415 2.942l-1.576 22.35c-.124 1.749 1.203 3.266 2.965 3.39 1.761.123 3.29-1.194 3.414-2.943l1.558-22.35a3.005 3.005 0 00-.715-2.344 3.044 3.044 0 00-2.231-1.045zM14.051 87.899c1.646.086 3.087-1.117 3.33-2.78l1.546-22.664c.043-1.7-1.243-3.13-2.907-3.23-1.699-.162-3.232 1.042-3.514 2.76L10.96 84.52c-.022 1.79 1.34 3.28 3.091 3.38z" transform="rotate(-4 492.651 -5438.83)"/><path fill="url(#be)" d="M115.377 50.88a61.218 61.218 0 00-3.244-12.838c.25-.848.413-1.728.486-2.621a10.334 10.334 0 00-.713-4.444c-2.191-4.529-5.17-8.469-8.744-11.565C99.772 16.468 89.325 2.492 62.3.27c-27.026-2.222-38.933 9.95-42.68 12.305-3.914 2.485-7.335 5.908-10.041 10.046-.756 1.254-1.179 2.74-1.217 4.273-.034.897.02 1.796.162 2.678a56.67 56.67 0 00-4.866 12.173 82.428 82.428 0 00-2.563 15.78L.073 74.618c-.308 3.87.363 7.76 1.93 11.186 1.023 2.232 2.725 3.934 4.77 4.766l1.816-30.498c-2.035.364-3.865 1.654-5.093 3.589l.357-5.868a66.618 66.618 0 012.368-14.034 54.51 54.51 0 014.218-10.71c.349.194.732.292 1.119.284.963.022 1.884-.458 2.514-1.31 2.057-3.172 4.653-5.81 7.624-7.748 2.856-1.672 16.887-16.142 40.036-14.243C84.88 11.93 97.03 28.565 99.772 30.559c2.69 2.312 4.907 5.296 6.489 8.736.515 1.094 1.418 1.866 2.465 2.108.387.056.779.017 1.152-.114a65.284 65.284 0 012.904 11.28c.699 4.733.9 9.548.6 14.338l-.34 5.868c-.98-2.084-2.615-3.638-4.56-4.33l-1.816 30.385c2.102-.447 3.984-1.803 5.272-3.798 1.958-3.14 3.086-6.884 3.245-10.768l1.021-17.09a74.313 74.313 0 00-.827-16.295z" transform="rotate(-4 492.651 -5438.83)"/></g><g style="mix-blend-mode:luminosity"><g transform="translate(397.308 73.664)"><mask id="bi" fill="#fff"><use xlink:href="#bf"/></mask><use fill="url(#bg)" opacity=".398" xlink:href="#bf"/><path fill="url(#bh)" d="M20.277 1.136L4.004 31.994l11.447 9.377 17.39-36.054z" mask="url(#bi)" opacity=".309"/></g><g transform="translate(450.772 73.664)"><mask id="bl" fill="#fff"><use xlink:href="#bj"/></mask><use fill="url(#bg)" opacity=".398" xlink:href="#bj"/><path fill="url(#bk)" d="M20.991.16L3.896 31.994l11.564 9.17L32.091 6.383z" mask="url(#bl)" opacity=".309"/></g><path fill="#1B283E" stroke="#1B283E" stroke-width="1.467" d="M470.964 113.647c-10.545 0-19.093-8.49-19.093-18.965s8.548-18.965 19.093-18.965 19.093 8.491 19.093 18.965-8.548 18.965-19.093 18.965zm-53.315 0c-10.545 0-19.093-8.49-19.093-18.965s8.548-18.965 19.093-18.965 19.093 8.491 19.093 18.965-8.548 18.965-19.093 18.965zm73.494-30.597c-1.595-1.828-4.623-4.196-6.436-5.55-.467-.37-.945-.723-1.441-1.055l-.032-.023v.003a22.089 22.089 0 00-12.27-3.695 22.11 22.11 0 00-15.654 6.457c-1.937 1.798-3.607 3.767-5.334 5.696-2.187 2.444-3.481 1.245-5.67 1.245-2.186 0-3.48 1.2-5.667-1.245-1.727-1.93-3.398-3.898-5.335-5.696-4.003-3.987-9.605-6.457-15.723-6.457-4.54 0-9.03 1.362-12.338 3.695v-.003l.035.023c-.497.332-.943.686-1.41 1.055-1.813 1.354-4.92 3.722-6.515 5.55-2.37 2.715-7.548 2.896-7.548 2.896v5.613s3.1-.18 4.102.996c.592.694 1.23 4.038 2.273 7.536.318 1.247.77 2.45 1.293 3.6.488 1.144 1.06 2.204 1.71 3.075l.007-.006a22.122 22.122 0 0018.456 9.873 22.108 22.108 0 0020.134-12.899l.018-.02.05-.086c1.588-2.674 3.185-10 3.907-11.164.729-1.177 2.55-1.268 2.55-1.268s1.824.091 2.553 1.268c.722 1.165 2.319 8.49 3.905 11.164l.052.085.016.021a22.108 22.108 0 0020.133 12.9 22.116 22.116 0 0018.452-9.874l.002.006c.652-.87 1.21-1.93 1.698-3.075.523-1.15.953-2.353 1.27-3.6 1.043-3.498 1.628-6.842 2.22-7.536 1.003-1.177 4.002-.996 4.002-.996v-5.613s-5.095-.18-7.465-2.896h0z"/></g><g><path fill="#25395B" d="M368.187-3.908l.283 74.625-6.795-1.378-.033-73.247z"/><path fill="url(#bm)" fill-rule="nonzero" d="M101.815 29.58L88.856 18.086 56.708 57.959a5.694 5.694 0 00.5 7.96 5.692 5.692 0 007.967-.351l36.64-35.988z" transform="rotate(137 211.837 124.639)"/><path fill="url(#bn)" d="M99.168.604c9.458-.392 17.452 6.943 17.877 16.402.424 9.46-6.88 17.481-16.335 17.94-9.456.458-17.5-6.82-17.992-16.276A17.227 17.227 0 0199.168.604z" transform="rotate(137 211.259 124.428)"/><path fill="#3450C5" fill-rule="nonzero" d="M353.424 138.738c-5.663-5.552-6.674-14.064-2.972-20.67a17.12 17.12 0 005.043 10.297c6.763 6.63 17.61 6.542 24.26-.196a17.163 17.163 0 002.754-3.675 17.226 17.226 0 01-4.823 14.048c-6.652 6.736-17.5 6.825-24.262.196z" opacity=".099"/><path fill="#E6E9EE" d="M355.21 99.008l1.027-20.395a2.219 2.219 0 012.225-2.075l13.397-.253a2.202 2.202 0 012.312 1.981l1.68 20.172a2.271 2.271 0 01-2.099 2.448l-16.123.346a2.183 2.183 0 01-2.418-2.225z"/><path fill="url(#bo)" d="M28.464 14.52l-14.66 14.216a2.219 2.219 0 01-3.043 0l-9.97-8.952a2.202 2.202 0 01-.34-3.026L12.98.86a2.271 2.271 0 013.204-.359l12.028 10.743a2.183 2.183 0 01.251 3.276z" transform="rotate(137 175.197 121.118)"/></g></g><g mask="url(#f)"><path stroke="url(#bp)" stroke-width="1.5" d="M134.158 157.832l-37.926-10.988-19.614-1.379v-.057l-.378.027-.372-.027v.057l-19.62 1.38-37.923 10.987S-1.64 165.954.109 189.606h152.265c1.752-23.652-18.216-31.774-18.216-31.774" transform="translate(215.211 17.006)"/><path fill="#77D7FF" d="M322.666 96.078s4.974-7.05 9.08-4.066c0 0 2.49 2.524.817 8.86a49.705 49.705 0 00-.76 3.477c-.164.899-.305 1.836-.36 2.753-.05.95.23 1.962-.026 2.896-.53 1.94-1.47 4.02-3.168 5.183-.732.499-1.56.87-2.448.935-.375.03-3.28-.286-3.273-.7l.138-19.338"/><path fill="#61C5FF" d="M322.648 98.217s4.017-5.682 7.32-3.278c0 0 2.01 2.037.663 7.145a38.87 38.87 0 00-.612 2.803c-.132.724-.25 1.48-.29 2.218-.043.766.18 1.583-.022 2.337-.43 1.569-1.185 3.242-2.553 4.177-.59.405-1.257.7-1.974.754-.303.024-2.646-.225-2.646-.565l.114-15.591"/><path fill="#77D7FF" d="M257.53 96.078s-4.974-7.05-9.08-4.066c0 0-2.49 2.524-.817 8.86.303 1.149.546 2.31.76 3.477.164.899.308 1.836.356 2.753.054.95-.225 1.962.033 2.896.525 1.94 1.464 4.02 3.165 5.183.732.499 1.554.87 2.445.935.378.03 3.285-.286 3.28-.7l-.142-19.338"/><path fill="#61C5FF" d="M257.548 98.217s-4.014-5.682-7.32-3.278c0 0-2.01 2.037-.663 7.145.24.925.438 1.863.612 2.803.132.724.252 1.48.288 2.218.042.766-.177 1.583.027 2.337.426 1.569 1.185 3.242 2.553 4.177.588.405 1.254.7 1.974.754.3.024 2.646-.225 2.646-.565l-.117-15.591"/><path fill="#77D7FF" d="M272.764 143.169s3.858 16.574-4.347 24.065h46.184s-9.696-12.914-4.46-25.936l-37.378 1.87"/><path fill="#61C5FF" d="M273.531 154.942c1.672 1.319 3.565 2.286 5.602 3.07 4.734 1.833 9.744 2.708 14.748 1.449 4.767-1.196 9.432-4.033 12.162-8.215 1.278-1.96 2.06-4.161 3.033-6.277.246-1.22.573-2.443 1.065-3.671l-37.377 1.87s1.293 5.608.768 11.774"/><g transform="translate(251.968 35.633)"><use fill="url(#bq)" xlink:href="#br"/><use fill="#000" fill-opacity=".078" xlink:href="#bs"/></g><path fill="#77D7FF" d="M349.37 174.838l-37.927-10.988-19.614-1.38v-.056l-.378.027-.372-.027v.057l-19.62 1.38-37.923 10.987s-19.965 8.122-18.216 31.775h152.265c1.752-23.653-18.216-31.775-18.216-31.775"/><path fill="url(#bt)" d="M110.503 132.352l23.655 6.853s19.968 8.122 18.216 31.775H.109c-1.75-23.653 18.23-31.778 18.23-31.778l26.236-7.601s28.64 37.14 65.928.75" transform="translate(215.211 35.633)"/><path fill="#25395B" d="M311.448 143.923s7.781-7.611 10.71-12.04c0 0 27.547 55.897-1.39 75.117 0 0 7.97-22.288-7.133-42.705 0 0-6.43-10.192-2.187-20.372"/><path stroke="url(#bu)" stroke-linecap="round" stroke-width="3" d="M28.557 95.577c-2.491 18.58 13.916 35.04 12.89 46.745-1.025 11.706 10.75 7.184 16.106 14.732 3.57 5.032 4.724 10.807 3.46 17.326" transform="translate(215.211 17.006)"/><path fill="#25395B" d="M264.264 169.404l.22.362c3.021 4.9 5.257 7.188 5.257 7.188-1.945-1.54-3.639-3.861-5.112-6.795l-.365-.755zm50.567 4.708l-.082.107a17.744 17.744 0 01-2.143 2.255l-.567.472.025-.02c.19-.16 1.166-1.007 2.596-2.618l.17-.196zM300.461 27.45s18.764 5.508 27.78 31.063c2.604 7.39 3.573 15.595 3.217 23.426-.01.305-.599 4.79-.955 7.145l-.062.402c-.09.565-.157.943-.188 1.006l-.009.009c8.27 50.44-8.349 75.506-15.327 83.514l-.086.097.415-.537c14.015-18.88 9.61-75.388 8.542-86.375-12.34-7.403-20.962-18.786-20.962-18.786 1.05 6.782 7.876 16.438 7.876 16.438-16.556-6.41-31.355-23.17-40.043-34.7l-.312-.414s-9.08 9.66-14.512 23.858c-.897 19.848-2.02 73.47 8.36 95.665l.07.143-.096-.155c-7.415-12.258-19.11-39.787-14.705-87.13-1.81-9.9-1.78-26.947 13.094-43.712 0 0 .135-.152.402-.42l.176-.175c2.81-2.76 15.812-14.038 37.326-10.362z"/><g><path fill="#25395B" d="M335.1 80.777c-1.445-.007-2.733 1.775-2.728 3.935l.202 28.18c-.301 1.282.155 2.648 1.144 3.417.99.769 2.298.776 3.273.017.977-.758 1.41-2.12 1.086-3.405l-.194-28.054c.144-.948-.072-1.927-.6-2.702s-1.318-1.278-2.184-1.388zm-89.697 33.104c1.725-.266 2.93-2.02 2.718-3.96l-.205-28.175c.176-1.93-1.05-3.696-2.773-3.991-.875.061-1.684.516-2.242 1.262-.56.746-.818 1.719-.72 2.695l.286 28.17c-.084.959.18 1.919.732 2.67.55.75 1.344 1.23 2.204 1.329z"/><path fill="url(#bv)" d="M95.615 67.46a3.101 3.101 0 00-3.214 2.773l-1.484 21.064a2.998 2.998 0 002.79 3.195 3.005 3.005 0 003.215-2.774l1.466-21.063c.1-.798-.145-1.6-.673-2.21a2.87 2.87 0 00-2.1-.985zM13.226 85.839c1.549.081 2.905-1.052 3.135-2.62l1.454-21.36c.04-1.603-1.17-2.95-2.736-3.044-1.6-.153-3.042.982-3.308 2.601l-1.455 21.237c-.02 1.687 1.262 3.091 2.91 3.186z" transform="rotate(-4 468.377 -3289.673)"/><path fill="#8D88FF" fill-rule="nonzero" d="M342.505 64.876a57.562 57.562 0 00-3.891-11.85c.18-.812.275-1.65.286-2.494a9.703 9.703 0 00-1.04-4.123c-2.351-4.116-5.41-7.623-8.973-10.292-3.364-2.545-14.036-14.996-39.57-15.308-25.536-.314-35.922 11.908-39.29 14.366-3.492 2.595-6.464 6.028-8.727 10.079-.626 1.235-.93 2.663-.877 4.113.04.845.155 1.683.344 2.504a52.583 52.583 0 00-3.772 11.758 77.653 77.653 0 00-1.373 14.98l.164 16.126c-.01 3.659.875 7.267 2.55 10.401 1.11 2.022 2.812 3.507 4.779 4.167l-.27-28.815c-1.89.469-3.528 1.803-4.55 3.706l-.066-5.553a65.224 65.224 0 011.241-13.356 53.2 53.2 0 013.26-10.322c.346.158.717.223 1.085.192.903-.057 1.731-.566 2.277-1.397 1.723-3.113 3.98-5.767 6.636-7.798 2.59-1.74 14.82-16.26 36.693-15.996 21.872.265 34.39 15.24 37.015 16.885 2.724 1.972 5.05 4.622 6.806 7.754.544 1.01 1.45 1.68 2.455 1.82a2.05 2.05 0 001.076-.166 61.208 61.208 0 013.47 10.41 64.874 64.874 0 011.503 13.397l.066 5.536c-1.073-1.924-2.735-3.3-4.634-3.836l.3 28.794c1.963-.58 3.643-2.027 4.693-4.04 1.636-3.084 2.45-6.684 2.34-10.349l-.164-16.127a69.897 69.897 0 00-1.842-15.166z" opacity=".24"/><path fill="url(#bw)" d="M108.599 50.95a57.818 57.818 0 00-3.054-12.1 12.33 12.33 0 00.458-2.47 9.75 9.75 0 00-.672-4.188c-2.062-4.268-4.866-7.981-8.23-10.9-3.19-2.774-13.024-15.947-38.462-18.04-25.437-2.095-36.644 9.378-40.172 11.597-3.683 2.341-6.904 5.568-9.45 9.468-.712 1.182-1.11 2.582-1.146 4.027-.032.846.019 1.692.153 2.524A53.357 53.357 0 003.443 42.34a77.823 77.823 0 00-2.412 14.874L.069 73.322c-.29 3.646.342 7.313 1.817 10.542.962 2.104 2.565 3.707 4.489 4.492l1.71-28.744c-1.916.344-3.639 1.559-4.795 3.383l.336-5.53a62.908 62.908 0 012.23-13.227 51.42 51.42 0 013.97-10.095c.328.184.689.276 1.053.269.906.02 1.773-.432 2.367-1.235 1.936-2.99 4.38-5.476 7.176-7.303 2.687-1.575 15.895-15.213 37.683-13.423C79.894 14.24 91.33 29.919 93.91 31.799c2.532 2.178 4.619 4.99 6.108 8.233.485 1.03 1.335 1.758 2.32 1.986.364.053.734.016 1.085-.107a61.62 61.62 0 012.733 10.631c.658 4.46.847 8.999.565 13.513l-.321 5.53c-.921-1.964-2.46-3.428-4.29-4.08l-1.71 28.637c1.978-.422 3.75-1.7 4.962-3.58 1.843-2.96 2.905-6.488 3.054-10.148l.961-16.108a70.113 70.113 0 00-.778-15.357z" transform="rotate(-4 468.377 -3289.673)"/></g><g style="mix-blend-mode:luminosity"><g transform="translate(246.563 77.178)"><mask id="bA" fill="#fff"><use xlink:href="#bx"/></mask><use fill="url(#by)" opacity=".398" xlink:href="#bx"/><path fill="url(#bz)" d="M19.086 1.07L3.769 30.153l10.774 8.838 16.368-33.98z" mask="url(#bA)" opacity=".309"/></g><g transform="translate(296.886 77.178)"><mask id="bD" fill="#fff"><use xlink:href="#bB"/></mask><use fill="url(#by)" opacity=".398" xlink:href="#bB"/><path fill="url(#bC)" d="M19.758.151L3.667 30.153l10.885 8.643 15.653-32.78z" mask="url(#bD)" opacity=".309"/></g><path fill="#1B283E" stroke="#1B283E" stroke-width="1.375" d="M315.89 114.86c-9.925 0-17.97-8.002-17.97-17.873s8.045-17.874 17.97-17.874c9.926 0 17.972 8.003 17.972 17.874 0 9.87-8.046 17.874-17.971 17.874zm-50.182 0c-9.925 0-17.971-8.002-17.971-17.873s8.046-17.874 17.97-17.874c9.927 0 17.972 8.003 17.972 17.874 0 9.87-8.045 17.874-17.971 17.874zm69.176-28.836c-1.5-1.723-4.351-3.954-6.058-5.23a20.58 20.58 0 00-1.356-.994l-.03-.022v.002a20.777 20.777 0 00-11.55-3.482 20.794 20.794 0 00-14.734 6.086c-1.824 1.694-3.395 3.55-5.02 5.368-2.06 2.303-3.278 1.173-5.337 1.173-2.058 0-3.277 1.13-5.335-1.173-1.625-1.818-3.198-3.674-5.021-5.368-3.767-3.76-9.04-6.086-14.798-6.086-4.274 0-8.5 1.284-11.614 3.482v-.002l.033.022c-.468.312-.888.645-1.327.994-1.707 1.276-4.631 3.507-6.132 5.23-2.23 2.56-7.105 2.73-7.105 2.73v5.29s2.917-.171 3.86.938c.558.654 1.16 3.806 2.14 7.103.3 1.175.726 2.308 1.218 3.393.459 1.078.996 2.077 1.61 2.897l.006-.005a20.815 20.815 0 0017.371 9.306c8.43 0 15.683-4.99 18.952-12.157l.016-.02.048-.08c1.494-2.521 2.997-9.425 3.677-10.522.686-1.11 2.401-1.195 2.401-1.195s1.716.085 2.402 1.195c.68 1.097 2.183 8 3.676 10.522l.048.08.016.02a20.806 20.806 0 0018.95 12.157c7.26 0 13.646-3.7 17.368-9.306l.001.005c.614-.82 1.14-1.82 1.599-2.897a20.486 20.486 0 001.196-3.393c.98-3.297 1.532-6.45 2.089-7.103.944-1.11 3.767-.938 3.767-.938v-5.29s-4.796-.17-7.027-2.73h0z"/></g></g></g></g></svg>