<svg width="600" height="200" viewBox="0 0 600 200" fill="none" xmlns="http://www.w3.org/2000/svg">
<path fill-rule="evenodd" clip-rule="evenodd" d="M263.534 71.9731L252.602 127.027H240.647L247.096 94.3093L226.097 121.207H220.435L209.109 93.9947L202.503 127.027H190.548L201.559 71.9731H211.941L225.704 106.264L252.602 71.9731H263.534ZM312.96 84.7138L304.544 127.027H292.904L293.691 122.858C290.178 126.057 285.852 127.656 280.714 127.656C277.411 127.656 274.369 126.896 271.591 125.375C268.812 123.855 266.596 121.666 264.945 118.808C263.293 115.95 262.467 112.582 262.467 108.702C262.467 104.035 263.503 99.8275 265.574 96.0786C267.645 92.3296 270.463 89.3934 274.029 87.2699C277.594 85.1464 281.526 84.0846 285.826 84.0846C292.328 84.0846 296.915 86.2081 299.589 90.4552L300.691 84.7138H312.96ZM290.938 115.741C292.826 114.561 294.294 112.923 295.342 110.825C296.391 108.728 296.915 106.316 296.915 103.59C296.915 100.706 296.063 98.4252 294.359 96.7474C292.655 95.0695 290.283 94.2306 287.242 94.2306C284.83 94.2306 282.68 94.8205 280.792 96.0002C278.905 97.18 277.437 98.8185 276.388 100.916C275.339 103.013 274.815 105.425 274.815 108.151C274.815 111.035 275.667 113.316 277.371 114.994C279.075 116.672 281.448 117.511 284.489 117.511C286.901 117.511 289.05 116.921 290.938 115.741ZM338.279 85.4217C340.875 84.5303 343.929 84.0846 347.442 84.0846L345.24 95.41C343.772 95.3052 342.828 95.2528 342.409 95.2528C338.686 95.2528 335.71 96.1703 333.482 98.0055C331.254 99.8406 329.746 102.698 328.96 106.578L324.87 127.027H312.601L321.016 84.7138H332.656L331.634 89.7473C333.469 87.7549 335.684 86.313 338.279 85.4217ZM374.453 103.118L389.003 127.027H374.768L364.701 110.59L357.229 116.803L355.184 127.027H342.915L354.555 68.6698H366.824L360.296 101.309L380.588 84.7141H396.553L374.453 103.118ZM433.789 109.174H401.386C401.805 114.941 405.449 117.825 412.318 117.825C414.467 117.825 416.525 117.484 418.492 116.802C420.458 116.121 422.175 115.151 423.643 113.892L428.755 121.993C426.396 123.881 423.696 125.297 420.655 126.24C417.613 127.184 414.415 127.656 411.059 127.656C406.707 127.656 402.893 126.883 399.616 125.336C396.339 123.789 393.822 121.574 392.066 118.69C390.309 115.806 389.431 112.477 389.431 108.702C389.431 104.035 390.493 99.8275 392.616 96.0786C394.74 92.3296 397.689 89.3934 401.464 87.2699C405.239 85.1464 409.539 84.0846 414.363 84.0846C418.452 84.0846 422.005 84.8449 425.02 86.3655C428.034 87.886 430.368 90.0619 432.019 92.8933C433.671 95.7247 434.497 99.0017 434.497 102.724C434.497 104.664 434.261 106.814 433.789 109.174ZM406.497 95.6067C404.505 97.1535 403.089 99.2901 402.25 102.017H423.25C423.25 99.2901 422.398 97.1535 420.694 95.6067C418.989 94.0599 416.696 93.2866 413.812 93.2866C410.928 93.2866 408.49 94.0599 406.497 95.6067ZM460.367 85.4217C462.963 84.5303 466.017 84.0846 469.53 84.0846L467.328 95.41C465.86 95.3052 464.916 95.2528 464.496 95.2528C460.774 95.2528 457.798 96.1703 455.57 98.0055C453.341 99.8406 451.834 102.698 451.047 106.578L446.958 127.027H434.689L443.104 84.7138H454.744L453.722 89.7473C455.557 87.7549 457.772 86.313 460.367 85.4217ZM464.924 125.651C463.56 124.314 462.879 122.623 462.879 120.578C462.879 118.166 463.665 116.2 465.238 114.679C466.811 113.159 468.751 112.398 471.058 112.398C473.155 112.398 474.873 113.054 476.21 114.365C477.547 115.675 478.215 117.379 478.215 119.477C478.215 121.836 477.416 123.789 475.816 125.336C474.217 126.883 472.317 127.656 470.114 127.656C468.017 127.656 466.287 126.988 464.924 125.651ZM490.283 84.7138H502.473L494.058 127.027H481.867L490.283 84.7138ZM493.311 76.967C491.974 75.7348 491.306 74.2274 491.306 72.4447C491.306 70.3474 492.053 68.604 493.547 67.2146C495.041 65.8251 496.994 65.1304 499.406 65.1304C501.556 65.1304 503.299 65.7202 504.637 66.9C505.974 68.0797 506.642 69.5347 506.642 71.265C506.642 73.5196 505.882 75.3416 504.361 76.731C502.841 78.1205 500.874 78.8152 498.463 78.8152C496.365 78.8152 494.648 78.1992 493.311 76.967ZM513.086 125.297C509.862 123.724 507.371 121.508 505.615 118.651C503.858 115.793 502.98 112.477 502.98 108.702C502.98 104.035 504.081 99.8406 506.283 96.1179C508.485 92.3952 511.526 89.459 515.406 87.3092C519.286 85.1595 523.665 84.0846 528.541 84.0846C532.84 84.0846 536.589 84.8711 539.788 86.4441C542.986 88.0171 545.463 90.2323 547.22 93.0899C548.976 95.9475 549.855 99.2638 549.855 103.039C549.855 107.705 548.767 111.9 546.591 115.623C544.415 119.345 541.374 122.282 537.467 124.431C533.561 126.581 529.17 127.656 524.294 127.656C520.047 127.656 516.311 126.87 513.086 125.297ZM531.451 115.741C533.338 114.561 534.806 112.923 535.855 110.825C536.904 108.728 537.428 106.316 537.428 103.59C537.428 100.706 536.589 98.4252 534.911 96.7474C533.233 95.0695 530.874 94.2306 527.833 94.2306C525.421 94.2306 523.271 94.8205 521.384 96.0002C519.496 97.18 518.028 98.8185 516.979 100.916C515.931 103.013 515.406 105.425 515.406 108.151C515.406 111.035 516.258 113.316 517.963 114.994C519.667 116.672 522.039 117.511 525.08 117.511C527.44 117.511 529.563 116.921 531.451 115.741Z" fill="#2C2E31"/>
<path fill-rule="evenodd" clip-rule="evenodd" d="M38.8809 95.5676C40.1304 86.1089 41.6633 76.9308 43.4795 68.0331C45.4388 58.4343 54.4099 51 64.0336 51H153.084C162.21 51 169.064 57.7065 169.169 66.74C169.276 75.9184 168.551 86.4014 166.994 98.1892C165.491 109.57 163.477 120.081 160.955 129.722C158.219 140.176 148.282 148 137.741 148H54.0069C42.9353 148 34.9075 139.394 35.6719 128.344C36.4934 116.469 37.5631 105.543 38.8809 95.5676ZM120.746 68.7753C118.708 66.7276 115.405 66.7067 113.351 68.7394C103.104 78.8814 75.034 106.659 73.3668 108.282C70.2349 111.935 66.6364 123.881 66.6364 123.881C66.4669 124.968 66.3552 126.37 66.8029 127.384C67.0619 128.008 67.5587 128.534 68.2321 128.813C69.4434 129.315 71.8822 130.005 75.7459 130.675C82.0284 131.764 90.132 132.414 100.257 132.414C110.382 132.414 118.486 131.764 124.768 130.675C128.632 130.005 131.071 129.315 132.282 128.813C133.63 128.254 134.27 126.708 133.712 125.36C133.153 124.012 131.607 123.372 130.259 123.93C130.099 123.997 129.658 124.149 128.912 124.36C127.595 124.733 125.921 125.111 123.865 125.468C117.892 126.503 110.089 127.129 100.257 127.129C92.2736 127.129 85.628 126.716 80.2134 126.007C82.5022 125.019 84.8641 123.623 86.8275 121.653C91.6622 116.801 116.974 91.6186 126.588 82.0559C128.642 80.0129 128.639 76.7022 126.595 74.6493L120.746 68.7753ZM74.5217 117.683C73.3468 119.648 75.2588 121.392 77.2321 120.23C79.8391 118.695 82.8 116.759 84.5841 114.967C87.7038 111.835 105.948 93.7357 111.884 87.8483C112.917 86.8232 112.908 85.1627 111.875 84.1369L111.105 83.3719C110.084 82.3583 108.45 82.3445 107.427 83.3558C101.871 88.8494 85.295 105.249 80.0971 110.511C77.5886 113.05 75.7842 115.571 74.5217 117.683ZM113.378 81.1735C112.346 80.1483 112.346 78.4787 113.378 77.4535L116.388 74.4635C117.411 73.448 119.061 73.448 120.083 74.4635L120.85 75.2251C121.882 76.2503 121.882 77.9199 120.85 78.9451L117.84 81.9352C116.818 82.9507 115.167 82.9507 114.145 81.9352L113.378 81.1735Z" fill="#2C2E31"/>
</svg>
